1.ufo
<glyph name="Eng" format="1">
  <advance width="660"/>
  <unicode hex="014A"/>
  <outline>
    <contour>
      <point x="26" y="0" type="line"/>
      <point x="186" y="0" type="line"/>
      <point x="275" y="457" type="line"/>
      <point x="318" y="503"/>
      <point x="367" y="524"/>
      <point x="403" y="524" type="curve" smooth="yes"/>
      <point x="449" y="524"/>
      <point x="476" y="490"/>
      <point x="476" y="406" type="curve" smooth="yes"/>
      <point x="476" y="256"/>
      <point x="410" y="126"/>
      <point x="350" y="126" type="curve" smooth="yes"/>
      <point x="339" y="126"/>
      <point x="329" y="130"/>
      <point x="323" y="134" type="curve"/>
      <point x="265" y="7" type="line"/>
      <point x="285" y="-6"/>
      <point x="332" y="-12"/>
      <point x="370" y="-12" type="curve" smooth="yes"/>
      <point x="532" y="-12"/>
      <point x="640" y="175"/>
      <point x="640" y="416" type="curve" smooth="yes"/>
      <point x="640" y="593"/>
      <point x="566" y="662"/>
      <point x="458" y="662" type="curve" smooth="yes"/>
      <point x="401" y="662"/>
      <point x="350" y="638"/>
      <point x="296" y="592" type="curve"/>
      <point x="308" y="650" type="line"/>
      <point x="156" y="650" type="line"/>
    </contour>
    <contour>
      <point x="333" y="672" type="move" name="aboveUC"/>
    </contour>
  </outline>
</glyph>
<glyph name="rturned" format="1">
  <advance width="400"/>
  <unicode hex="0279"/>
  <outline>
    <contour>
      <point x="392" y="500" type="line"/>
      <point x="232" y="500" type="line"/>
      <point x="178" y="220" type="line"/>
      <point x="140" y="154"/>
      <point x="104" y="128"/>
      <point x="62" y="128" type="curve" smooth="yes"/>
      <point x="46" y="128"/>
      <point x="24" y="128"/>
      <point x="10" y="136" type="curve"/>
      <point x="-42" y="-2" type="line"/>
      <point x="-32" y="-8"/>
      <point x="-16" y="-12"/>
      <point x="12" y="-12" type="curve" smooth="yes"/>
      <point x="68" y="-12"/>
      <point x="126" y="34"/>
      <point x="164" y="98" type="curve"/>
      <point x="168" y="98" type="line"/>
      <point x="164" y="0" type="line"/>
      <point x="294" y="0" type="line"/>
    </contour>
    <contour>
      <point x="240" y="522" type="move" name="aboveLC"/>
    </contour>
    <contour>
      <point x="42" y="-22" type="move" name="belowLC"/>
    </contour>
  </outline>
</glyph>
<glyph name="vturned" format="1">
  <advance width="518"/>
  <unicode hex="028C"/>
  <outline>
    <contour>
      <point x="402" y="500" type="line"/>
      <point x="218" y="500" type="line"/>
      <point x="-32" y="0" type="line"/>
      <point x="124" y="0" type="line"/>
      <point x="222" y="228" type="line" smooth="yes"/>
      <point x="244" y="280"/>
      <point x="264" y="330"/>
      <point x="286" y="382" type="curve"/>
      <point x="290" y="382" type="line"/>
      <point x="290" y="329"/>
      <point x="290" y="278"/>
      <point x="292" y="228" type="curve" smooth="yes"/>
      <point x="302" y="0" type="line"/>
      <point x="462" y="0" type="line"/>
    </contour>
    <contour>
      <point x="326" y="522" type="move" name="aboveLC"/>
    </contour>
    <contour>
      <point x="222" y="-22" type="move" name="belowLC"/>
    </contour>
  </outline>
</glyph>
<glyph name="wturned" format="1">
  <advance width="764"/>
  <unicode hex="028D"/>
  <outline>
    <contour>
      <point x="681" y="500" type="line"/>
      <point x="501" y="500" type="line"/>
      <point x="429" y="314" type="line"/>
      <point x="412" y="268"/>
      <point x="398" y="222"/>
      <point x="379" y="168" type="curve"/>
      <point x="375" y="168" type="line"/>
      <point x="378" y="222"/>
      <point x="377" y="268"/>
      <point x="379" y="314" type="curve"/>
      <point x="379" y="500" type="line"/>
      <point x="193" y="500" type="line"/>
      <point x="-14" y="0" type="line"/>
      <point x="134" y="0" type="line"/>
      <point x="213" y="222" type="line"/>
      <point x="231" y="271"/>
      <point x="245" y="321"/>
      <point x="263" y="372" type="curve"/>
      <point x="267" y="372" type="line"/>
      <point x="267" y="321"/>
      <point x="264" y="271"/>
      <point x="265" y="222" type="curve"/>
      <point x="270" y="0" type="line"/>
      <point x="406" y="0" type="line"/>
      <point x="497" y="222" type="line"/>
      <point x="518" y="270"/>
      <point x="535" y="321"/>
      <point x="553" y="372" type="curve"/>
      <point x="557" y="372" type="line"/>
      <point x="554" y="321"/>
      <point x="549" y="271"/>
      <point x="547" y="222" type="curve"/>
      <point x="542" y="0" type="line"/>
      <point x="700" y="0" type="line"/>
    </contour>
    <contour>
      <point x="436" y="522" type="move" name="aboveLC"/>
    </contour>
    <contour>
      <point x="340" y="-22" type="move" name="belowLC"/>
    </contour>
  </outline>
</glyph>
<glyph name="colontriangularmod" format="1">
  <advance width="310"/>
  <unicode hex="02D0"/>
  <outline>
    <contour>
      <point x="152" y="290" type="line"/>
      <point x="167" y="290" type="line"/>
      <point x="311" y="489" type="line"/>
      <point x="88" y="489" type="line"/>
    </contour>
    <contour>
      <point x="157" y="199" type="line"/>
      <point x="142" y="199" type="line"/>
      <point x="-2" y="0" type="line"/>
      <point x="221" y="0" type="line"/>
    </contour>
  </outline>
</glyph>
<glyph name="Beta" format="1">
  <advance width="612"/>
  <outline>
    <component base="B"/>
    <contour>
      <point x="360" y="682" type="move" name="aboveUC"/>
    </contour>
    <contour>
      <point x="272" y="-22" type="move" name="belowLC"/>
    </contour>
  </outline>
</glyph>
<glyph name="Chi" format="1">
  <advance width="576"/>
  <outline>
    <component base="X"/>
    <contour>
      <point x="386" y="682" type="move" name="aboveUC"/>
    </contour>
    <contour>
      <point x="290" y="-30" type="move" name="belowLC"/>
    </contour>
  </outline>
</glyph>
<glyph name="Dze" format="1">
  <advance width="538"/>
  <outline>
    <component base="S"/>
    <contour>
      <point x="376" y="690" type="move" name="aboveUC"/>
    </contour>
    <contour>
      <point x="248" y="-30" type="move" name="belowLC"/>
    </contour>
    <contour>
      <point x="254" y="0" type="move" name="baseLC"/>
    </contour>
  </outline>
</glyph>
<glyph name="Es" format="1">
  <advance width="574"/>
  <outline>
    <component base="C"/>
    <contour>
      <point x="450" y="682" type="move" name="aboveUC"/>
    </contour>
    <contour>
      <point x="288" y="-22" type="move" name="belowLC"/>
    </contour>
    <contour>
      <point x="294" y="0" type="move" name="baseLC"/>
    </contour>
  </outline>
</glyph>
<glyph name="Eta" format="1">
  <advance width="664"/>
  <outline>
    <component base="H"/>
    <contour>
      <point x="420" y="682" type="move" name="aboveUC"/>
    </contour>
    <contour>
      <point x="290" y="-22" type="move" name="belowLC"/>
    </contour>
  </outline>
</glyph>
<glyph name="G" format="1">
  <advance width="620"/>
  <outline>
    <contour>
      <point x="56" y="264" type="curve" smooth="yes"/>
      <point x="56" y="88"/>
      <point x="158" y="-12"/>
      <point x="320" y="-12" type="curve" smooth="yes"/>
      <point x="404" y="-12"/>
      <point x="480" y="18"/>
      <point x="530" y="56" type="curve"/>
      <point x="592" y="378" type="line"/>
      <point x="356" y="378" type="line"/>
      <point x="332" y="248" type="line"/>
      <point x="428" y="248" type="line"/>
      <point x="404" y="140" type="line"/>
      <point x="389" y="130"/>
      <point x="367" y="124"/>
      <point x="348" y="124" type="curve" smooth="yes"/>
      <point x="256" y="124"/>
      <point x="220" y="180"/>
      <point x="220" y="274" type="curve" smooth="yes"/>
      <point x="220" y="414"/>
      <point x="304" y="524"/>
      <point x="408" y="524" type="curve" smooth="yes"/>
      <point x="446" y="524"/>
      <point x="472" y="508"/>
      <point x="496" y="472" type="curve"/>
      <point x="604" y="556" type="line"/>
      <point x="566" y="624"/>
      <point x="502" y="662"/>
      <point x="416" y="662" type="curve" smooth="yes"/>
      <point x="214" y="662"/>
      <point x="56" y="496"/>
    </contour>
    <contour>
      <point x="444" y="682" type="move" name="aboveUC"/>
    </contour>
    <contour>
      <point x="322" y="-22" type="move" name="belowLC"/>
    </contour>
  </outline>
</glyph>
<glyph name="Gamma" format="1">
  <advance width="504"/>
  <outline>
    <contour>
      <point x="26" y="0" type="line"/>
      <point x="186" y="0" type="line"/>
      <point x="288" y="516" type="line"/>
      <point x="532" y="516" type="line"/>
      <point x="558" y="650" type="line"/>
      <point x="156" y="650" type="line"/>
    </contour>
    <contour>
      <point x="253" y="672" type="move" name="aboveUC"/>
    </contour>
  </outline>
</glyph>
<glyph name="Hbar" format="1">
  <advance width="664"/>
  <outline>
    <contour>
      <point x="82" y="558" type="line"/>
      <point x="68" y="488" type="line"/>
      <point x="736" y="488" type="line"/>
      <point x="750" y="564" type="line"/>
      <point x="156" y="564" type="line"/>
    </contour>
    <component base="H"/>
  </outline>
</glyph>
<glyph name="I" format="1">
  <advance width="312"/>
  <outline>
    <contour>
      <point x="26" y="0" type="line"/>
      <point x="186" y="0" type="line"/>
      <point x="316" y="650" type="line"/>
      <point x="156" y="650" type="line"/>
    </contour>
    <contour>
      <point x="248" y="682" type="move" name="aboveUC"/>
    </contour>
    <contour>
      <point x="110" y="-22" type="move" name="belowLC"/>
    </contour>
    <contour>
      <point x="102" y="0" type="move" name="ogonekUC"/>
    </contour>
  </outline>
</glyph>
<glyph name="Je" format="1">
  <advance width="504"/>
  <outline>
    <component base="J"/>
    <contour>
      <point x="444" y="682" type="move" name="aboveUC"/>
    </contour>
    <contour>
      <point x="168" y="-30" type="move" name="belowLC"/>
    </contour>
  </outline>
</glyph>
<glyph name="Lslash" format="1">
  <advance width="514"/>
  <outline>
    <contour>
      <point x="226" y="265" type="line"/>
      <point x="422" y="366" type="line"/>
      <point x="448" y="498" type="line"/>
      <point x="252" y="397" type="line"/>
      <point x="108" y="332" type="line"/>
      <point x="18" y="286" type="line"/>
      <point x="-8" y="154" type="line"/>
      <point x="82" y="200" type="line"/>
    </contour>
    <component base="L"/>
  </outline>
</glyph>
<glyph name="Mu" format="1">
  <advance width="754"/>
  <outline>
    <component base="M"/>
    <contour>
      <point x="454" y="682" type="move" name="aboveUC"/>
    </contour>
    <contour>
      <point x="334" y="-30" type="move" name="belowLC"/>
    </contour>
  </outline>
</glyph>
<glyph name="N" format="1">
  <advance width="652"/>
  <outline>
    <contour>
      <point x="26" y="0" type="line"/>
      <point x="178" y="0" type="line"/>
      <point x="220" y="210" type="line" smooth="yes"/>
      <point x="236" y="288"/>
      <point x="242" y="380"/>
      <point x="248" y="454" type="curve"/>
      <point x="252" y="454" type="line"/>
      <point x="282" y="308" type="line"/>
      <point x="372" y="0" type="line"/>
      <point x="526" y="0" type="line"/>
      <point x="656" y="650" type="line"/>
      <point x="504" y="650" type="line"/>
      <point x="462" y="442" type="line" smooth="yes"/>
      <point x="446" y="364"/>
      <point x="442" y="266"/>
      <point x="436" y="196" type="curve"/>
      <point x="432" y="196" type="line"/>
      <point x="400" y="342" type="line"/>
      <point x="310" y="650" type="line"/>
      <point x="156" y="650" type="line"/>
    </contour>
    <contour>
      <point x="432" y="682" type="move" name="aboveUC"/>
    </contour>
    <contour>
      <point x="308" y="-30" type="move" name="belowLC"/>
    </contour>
  </outline>
</glyph>
<glyph name="Nu" format="1">
  <advance width="652"/>
  <outline>
    <component base="N"/>
    <contour>
      <point x="432" y="682" type="move" name="aboveUC"/>
    </contour>
    <contour>
      <point x="308" y="-30" type="move" name="belowLC"/>
    </contour>
  </outline>
</glyph>
<glyph name="Ocyr" format="1">
  <advance width="670"/>
  <outline>
    <component base="O"/>
    <contour>
      <point x="434" y="682" type="move" name="aboveUC"/>
    </contour>
    <contour>
      <point x="298" y="-22" type="move" name="belowLC"/>
    </contour>
    <contour>
      <point x="304" y="0" type="move" name="ogonekUC"/>
    </contour>
    <contour>
      <point x="534" y="644" type="move" name="hornLC"/>
    </contour>
  </outline>
</glyph>
<glyph name="Ohorndotbelow" format="1">
  <advance width="670"/>
  <outline>
    <contour>
      <point x="582" y="742" type="line"/>
      <point x="587" y="730"/>
      <point x="590" y="716"/>
      <point x="590" y="704" type="curve" smooth="yes"/>
      <point x="590" y="672"/>
      <point x="564" y="639"/>
      <point x="511" y="633" type="curve"/>
      <point x="579" y="579" type="line"/>
      <point x="665" y="595"/>
      <point x="714" y="646"/>
      <point x="714" y="712" type="curve" smooth="yes"/>
      <point x="714" y="734"/>
      <point x="710" y="756"/>
      <point x="700" y="778" type="curve"/>
    </contour>
    <component base="O"/>
    <component base="dotbelowcmb" xOffset="302" yOffset="8"/>
  </outline>
</glyph>
<glyph name="Oogonek" format="1">
  <advance width="670"/>
  <outline>
    <contour>
      <point x="384" y="524" type="curve" smooth="yes"/>
      <point x="444" y="524"/>
      <point x="480" y="470"/>
      <point x="480" y="376" type="curve" smooth="yes"/>
      <point x="480" y="226"/>
      <point x="390" y="126"/>
      <point x="316" y="126" type="curve" smooth="yes"/>
      <point x="256" y="126"/>
      <point x="220" y="180"/>
      <point x="220" y="274" type="curve" smooth="yes"/>
      <point x="220" y="424"/>
      <point x="310" y="524"/>
    </contour>
    <contour>
      <point x="644" y="386" type="curve" smooth="yes"/>
      <point x="644" y="562"/>
      <point x="542" y="662"/>
      <point x="392" y="662" type="curve" smooth="yes"/>
      <point x="220" y="662"/>
      <point x="56" y="506"/>
      <point x="56" y="264" type="curve" smooth="yes"/>
      <point x="56" y="108"/>
      <point x="135" y="14"/>
      <point x="260" y="-8" type="curve"/>
      <point x="226" y="-34"/>
      <point x="174" y="-84"/>
      <point x="174" y="-146" type="curve" smooth="yes"/>
      <point x="174" y="-196"/>
      <point x="214" y="-226"/>
      <point x="272" y="-226" type="curve" smooth="yes"/>
      <point x="308" y="-226"/>
      <point x="356" y="-212"/>
      <point x="386" y="-192" type="curve"/>
      <point x="356" y="-116" type="line"/>
      <point x="346" y="-122"/>
      <point x="339" y="-124"/>
      <point x="332" y="-124" type="curve" smooth="yes"/>
      <point x="314" y="-124"/>
      <point x="298" y="-114"/>
      <point x="298" y="-94" type="curve" smooth="yes"/>
      <point x="298" y="-66"/>
      <point x="322" y="-32"/>
      <point x="384" y="-4" type="curve"/>
      <point x="554" y="70"/>
      <point x="644" y="199"/>
    </contour>
    <contour>
      <point x="434" y="682" type="move" name="aboveUC"/>
    </contour>
  </outline>
</glyph>
<glyph name="Oslash" format="1">
  <advance width="670"/>
  <outline>
    <contour>
      <point x="-12" y="20" type="line"/>
      <point x="58" y="-44" type="line"/>
      <point x="726" y="638" type="line"/>
      <point x="656" y="702" type="line"/>
    </contour>
    <component base="O"/>
    <contour>
      <point x="440" y="682" type="move" name="aboveUC"/>
    </contour>
  </outline>
</glyph>
<glyph name="P" format="1">
  <advance width="596"/>
  <outline>
    <contour>
      <point x="26" y="0" type="line"/>
      <point x="186" y="0" type="line"/>
      <point x="228" y="212" type="line"/>
      <point x="294" y="212" type="line" smooth="yes"/>
      <point x="457" y="212"/>
      <point x="600" y="282"/>
      <point x="600" y="472" type="curve" smooth="yes"/>
      <point x="600" y="602"/>
      <point x="499" y="650"/>
      <point x="370" y="650" type="curve" smooth="yes"/>
      <point x="156" y="650" type="line"/>
    </contour>
    <contour>
      <point x="254" y="338" type="line"/>
      <point x="290" y="524" type="line"/>
      <point x="348" y="524" type="line" smooth="yes"/>
      <point x="407" y="524"/>
      <point x="442" y="500"/>
      <point x="442" y="448" type="curve" smooth="yes"/>
      <point x="442" y="376"/>
      <point x="395" y="338"/>
      <point x="313" y="338" type="curve" smooth="yes"/>
    </contour>
    <contour>
      <point x="398" y="682" type="move" name="aboveUC"/>
    </contour>
    <contour>
      <point x="110" y="-30" type="move" name="belowLC"/>
    </contour>
  </outline>
</glyph>
<glyph name="Phi" format="1">
  <advance width="773"/>
  <outline>
    <contour>
      <point x="217" y="319" type="curve" smooth="yes"/>
      <point x="217" y="413"/>
      <point x="289" y="469"/>
      <point x="388" y="469" type="curve" smooth="yes"/>
      <point x="442" y="469" type="line" smooth="yes"/>
      <point x="538" y="469"/>
      <point x="598" y="421"/>
      <point x="598" y="337" type="curve" smooth="yes"/>
      <point x="598" y="244"/>
      <point x="524" y="183"/>
      <point x="425" y="183" type="curve" smooth="yes"/>
      <point x="371" y="183" type="line" smooth="yes"/>
      <point x="276" y="183"/>
      <point x="217" y="235"/>
    </contour>
    <contour>
      <point x="60" y="299" type="curve" smooth="yes"/>
      <point x="60" y="148"/>
      <point x="177" y="60"/>
      <point x="356" y="60" type="curve" smooth="yes"/>
      <point x="392" y="60" type="line" smooth="yes"/>
      <point x="596" y="60"/>
      <point x="755" y="171"/>
      <point x="755" y="357" type="curve" smooth="yes"/>
      <point x="755" y="508"/>
      <point x="637" y="593"/>
      <point x="458" y="593" type="curve" smooth="yes"/>
      <point x="422" y="593" type="line" smooth="yes"/>
      <point x="218" y="593"/>
      <point x="60" y="487"/>
    </contour>
    <contour>
      <point x="264" y="-22" type="line"/>
      <point x="411" y="-22" type="line"/>
      <point x="550" y="673" type="line"/>
      <point x="403" y="673" type="line"/>
    </contour>
  </outline>
</glyph>
<glyph name="R" format="1">
  <advance width="612"/>
  <outline>
    <contour>
      <point x="284" y="262" type="line"/>
      <point x="372" y="0" type="line"/>
      <point x="540" y="0" type="line"/>
      <point x="398" y="366" type="line"/>
    </contour>
    <contour>
      <point x="26" y="0" type="line"/>
      <point x="186" y="0" type="line"/>
      <point x="230" y="224" type="line"/>
      <point x="300" y="224" type="line" smooth="yes"/>
      <point x="454" y="224"/>
      <point x="600" y="298"/>
      <point x="600" y="478" type="curve" smooth="yes"/>
      <point x="600" y="604"/>
      <point x="500" y="650"/>
      <point x="370" y="650" type="curve" smooth="yes"/>
      <point x="156" y="650" type="line"/>
    </contour>
    <contour>
      <point x="256" y="350" type="line"/>
      <point x="290" y="524" type="line"/>
      <point x="348" y="524" type="line" smooth="yes"/>
      <point x="408" y="524"/>
      <point x="442" y="502"/>
      <point x="442" y="454" type="curve" smooth="yes"/>
      <point x="442" y="392"/>
      <point x="400" y="350"/>
      <point x="314" y="350" type="curve" smooth="yes"/>
    </contour>
    <contour>
      <point x="400" y="682" type="move" name="aboveUC"/>
    </contour>
    <contour>
      <point x="292" y="-30" type="move" name="belowLC"/>
    </contour>
  </outline>
</glyph>
<glyph name="Tau" format="1">
  <advance width="540"/>
  <outline>
    <component base="T"/>
    <contour>
      <point x="366" y="682" type="move" name="aboveUC"/>
    </contour>
    <contour>
      <point x="220" y="-22" type="move" name="belowLC"/>
    </contour>
    <contour>
      <point x="226" y="0" type="move" name="baseLC"/>
    </contour>
  </outline>
</glyph>
<glyph name="Tbar" format="1">
  <advance width="540"/>
  <outline>
    <contour>
      <point x="142" y="0" type="line"/>
      <point x="302" y="0" type="line"/>
      <point x="404" y="516" type="line"/>
      <point x="568" y="516" type="line"/>
      <point x="594" y="650" type="line"/>
      <point x="106" y="650" type="line"/>
      <point x="80" y="516" type="line"/>
      <point x="244" y="516" type="line"/>
    </contour>
    <contour>
      <point x="366" y="682" type="move" name="aboveUC"/>
    </contour>
    <contour>
      <point x="220" y="-22" type="move" name="belowLC"/>
    </contour>
    <contour>
      <point x="226" y="0" type="move" name="baseLC"/>
    </contour>
  </outline>
</glyph>
<glyph name="Theta" format="1">
  <advance width="670"/>
  <outline>
    <contour>
      <point x="248" y="268" type="line"/>
      <point x="428" y="268" type="line"/>
      <point x="454" y="403" type="line"/>
      <point x="274" y="403" type="line"/>
    </contour>
    <component base="O"/>
  </outline>
</glyph>
<glyph name="Thorn" format="1">
  <advance width="608"/>
  <outline>
    <contour>
      <point x="26" y="0" type="line"/>
      <point x="184" y="0" type="line"/>
      <point x="208" y="116" type="line"/>
      <point x="278" y="116" type="line" smooth="yes"/>
      <point x="440" y="116"/>
      <point x="586" y="186"/>
      <point x="586" y="376" type="curve" smooth="yes"/>
      <point x="586" y="506"/>
      <point x="492" y="554"/>
      <point x="374" y="554" type="curve" smooth="yes"/>
      <point x="296" y="554" type="line"/>
      <point x="316" y="650" type="line"/>
      <point x="156" y="650" type="line"/>
    </contour>
    <contour>
      <point x="234" y="242" type="line"/>
      <point x="270" y="428" type="line"/>
      <point x="342" y="428" type="line" smooth="yes"/>
      <point x="396" y="428"/>
      <point x="428" y="404"/>
      <point x="428" y="352" type="curve" smooth="yes"/>
      <point x="428" y="280"/>
      <point x="380" y="242"/>
      <point x="296" y="242" type="curve" smooth="yes"/>
    </contour>
  </outline>
</glyph>
<glyph name="U" format="1">
  <advance width="654"/>
  <outline>
    <contour>
      <point x="88" y="332" type="line" smooth="yes"/>
      <point x="82" y="298"/>
      <point x="74" y="252"/>
      <point x="74" y="222" type="curve" smooth="yes"/>
      <point x="74" y="62"/>
      <point x="154" y="-12"/>
      <point x="316" y="-12" type="curve" smooth="yes"/>
      <point x="464" y="-12"/>
      <point x="548" y="82"/>
      <point x="588" y="286" type="curve" smooth="yes"/>
      <point x="662" y="650" type="line"/>
      <point x="506" y="650" type="line"/>
      <point x="432" y="282" type="line" smooth="yes"/>
      <point x="410" y="170"/>
      <point x="378" y="126"/>
      <point x="320" y="126" type="curve" smooth="yes"/>
      <point x="254" y="126"/>
      <point x="234" y="160"/>
      <point x="234" y="226" type="curve" smooth="yes"/>
      <point x="234" y="250"/>
      <point x="238" y="274"/>
      <point x="242" y="300" type="curve"/>
      <point x="312" y="650" type="line"/>
      <point x="152" y="650" type="line"/>
    </contour>
    <contour>
      <point x="428" y="682" type="move" name="aboveUC"/>
    </contour>
    <contour>
      <point x="290" y="-22" type="move" name="belowLC"/>
    </contour>
    <contour>
      <point x="296" y="0" type="move" name="ogonekUC"/>
    </contour>
    <contour>
      <point x="620" y="660" type="move" name="hornLC"/>
    </contour>
  </outline>
</glyph>
<glyph name="Uhornacute" format="1">
  <advance width="680"/>
  <outline>
    <contour>
      <point x="666" y="758" type="line"/>
      <point x="671" y="746"/>
      <point x="674" y="732"/>
      <point x="674" y="720" type="curve" smooth="yes"/>
      <point x="674" y="688"/>
      <point x="648" y="656"/>
      <point x="600" y="650" type="curve"/>
      <point x="645" y="589" type="line"/>
      <point x="756" y="611"/>
      <point x="798" y="664"/>
      <point x="798" y="728" type="curve" smooth="yes"/>
      <point x="798" y="750"/>
      <point x="794" y="772"/>
      <point x="784" y="794" type="curve"/>
    </contour>
    <component base="U"/>
    <component base="acutecmb.cap" xOffset="287"/>
  </outline>
</glyph>
<glyph name="Upsilon" format="1">
  <advance width="528"/>
  <outline>
    <component base="Y"/>
    <contour>
      <point x="356" y="682" type="move" name="aboveUC"/>
    </contour>
    <contour>
      <point x="214" y="-30" type="move" name="belowLC"/>
    </contour>
  </outline>
</glyph>
<glyph name="V" format="1">
  <advance width="576"/>
  <outline>
    <contour>
      <point x="132" y="0" type="line"/>
      <point x="326" y="0" type="line"/>
      <point x="660" y="650" type="line"/>
      <point x="484" y="650" type="line"/>
      <point x="352" y="346" type="line"/>
      <point x="323" y="277"/>
      <point x="295" y="209"/>
      <point x="266" y="140" type="curve"/>
      <point x="262" y="140" type="line"/>
      <point x="262" y="209"/>
      <point x="260" y="278"/>
      <point x="258" y="346" type="curve"/>
      <point x="246" y="650" type="line"/>
      <point x="78" y="650" type="line"/>
    </contour>
    <contour>
      <point x="390" y="682" type="move" name="aboveUC"/>
    </contour>
    <contour>
      <point x="248" y="-30" type="move" name="belowLC"/>
    </contour>
  </outline>
</glyph>
<glyph name="W" format="1">
  <advance width="808"/>
  <outline>
    <contour>
      <point x="70" y="0" type="line"/>
      <point x="268" y="0" type="line"/>
      <point x="376" y="278" type="line"/>
      <point x="395" y="328"/>
      <point x="416" y="381"/>
      <point x="433" y="429" type="curve"/>
      <point x="437" y="429" type="line"/>
      <point x="432" y="380"/>
      <point x="426" y="317"/>
      <point x="426" y="278" type="curve"/>
      <point x="418" y="0" type="line"/>
      <point x="620" y="0" type="line"/>
      <point x="866" y="650" type="line"/>
      <point x="714" y="650" type="line"/>
      <point x="616" y="356" type="line"/>
      <point x="596" y="289"/>
      <point x="570" y="218"/>
      <point x="548" y="148" type="curve"/>
      <point x="544" y="148" type="line"/>
      <point x="548" y="218"/>
      <point x="552" y="290"/>
      <point x="554" y="356" type="curve"/>
      <point x="554" y="650" type="line"/>
      <point x="421" y="650" type="line"/>
      <point x="298" y="356" type="line"/>
      <point x="273" y="289"/>
      <point x="242" y="217"/>
      <point x="216" y="148" type="curve"/>
      <point x="212" y="148" type="line"/>
      <point x="222" y="217"/>
      <point x="229" y="288"/>
      <point x="236" y="356" type="curve"/>
      <point x="262" y="650" type="line"/>
      <point x="98" y="650" type="line"/>
    </contour>
    <contour>
      <point x="498" y="682" type="move" name="aboveUC"/>
    </contour>
    <contour>
      <point x="346" y="-30" type="move" name="belowLC"/>
    </contour>
  </outline>
</glyph>
<glyph name="Xi" format="1">
  <advance width="557"/>
  <outline>
    <contour>
      <point x="6" y="0" type="line"/>
      <point x="461" y="0" type="line"/>
      <point x="488" y="132" type="line"/>
      <point x="32" y="132" type="line"/>
    </contour>
    <contour>
      <point x="119" y="519" type="line"/>
      <point x="555" y="519" type="line"/>
      <point x="582" y="651" type="line"/>
      <point x="146" y="651" type="line"/>
    </contour>
    <contour>
      <point x="124" y="268" type="line"/>
      <point x="451" y="268" type="line"/>
      <point x="477" y="400" type="line"/>
      <point x="150" y="400" type="line"/>
    </contour>
  </outline>
</glyph>
<glyph name="a.supa" format="1">
  <advance width="350"/>
  <outline>
    <contour>
      <point x="52" y="336" type="curve" smooth="yes"/>
      <point x="52" y="286"/>
      <point x="88" y="252"/>
      <point x="136" y="252" type="curve" smooth="yes"/>
      <point x="170" y="252"/>
      <point x="204" y="270"/>
      <point x="224" y="292" type="curve"/>
      <point x="228" y="292" type="line"/>
      <point x="232" y="260" type="line"/>
      <point x="320" y="260" type="line"/>
      <point x="355" y="437" type="line" smooth="yes"/>
      <point x="359" y="456"/>
      <point x="361" y="472"/>
      <point x="361" y="486" type="curve" smooth="yes"/>
      <point x="361" y="564"/>
      <point x="316" y="599"/>
      <point x="238" y="599" type="curve" smooth="yes"/>
      <point x="192" y="599"/>
      <point x="146" y="585"/>
      <point x="104" y="566" type="curve"/>
      <point x="138" y="492" type="line"/>
      <point x="170" y="506"/>
      <point x="187" y="514"/>
      <point x="211" y="514" type="curve" smooth="yes"/>
      <point x="235" y="514"/>
      <point x="250" y="503"/>
      <point x="250" y="474" type="curve" smooth="yes"/>
      <point x="250" y="472"/>
      <point x="250" y="471"/>
      <point x="250" y="468" type="curve"/>
      <point x="141" y="465"/>
      <point x="52" y="432"/>
    </contour>
    <contour>
      <point x="238" y="402" type="curve"/>
      <point x="228" y="355" type="line"/>
      <point x="216" y="344"/>
      <point x="204" y="334"/>
      <point x="188" y="334" type="curve" smooth="yes"/>
      <point x="170" y="334"/>
      <point x="160" y="344"/>
      <point x="160" y="358" type="curve" smooth="yes"/>
      <point x="160" y="381"/>
      <point x="180" y="401"/>
    </contour>
  </outline>
</glyph>
<glyph name="acutecmb.cap" format="1">
  <advance width="0"/>
  <outline>
    <contour>
      <point x="38" y="700" type="line"/>
      <point x="168" y="700" type="line"/>
      <point x="310" y="822" type="line"/>
      <point x="138" y="822" type="line"/>
    </contour>
    <contour>
      <point x="136" y="682" type="move" name="_aboveUC"/>
    </contour>
  </outline>
</glyph>
<glyph name="alpha" format="1">
  <advance width="576"/>
  <outline>
    <contour>
      <point x="246" y="118" type="curve" smooth="yes"/>
      <point x="212" y="118"/>
      <point x="192" y="140"/>
      <point x="192" y="196" type="curve" smooth="yes"/>
      <point x="192" y="323"/>
      <point x="254" y="382"/>
      <point x="302" y="382" type="curve" smooth="yes"/>
      <point x="332" y="382"/>
      <point x="354" y="364"/>
      <point x="364" y="314" type="curve"/>
      <point x="338" y="216" type="line"/>
      <point x="322" y="164"/>
      <point x="282" y="118"/>
    </contour>
    <contour>
      <point x="26" y="180" type="curve" smooth="yes"/>
      <point x="26" y="62"/>
      <point x="82" y="-12"/>
      <point x="184" y="-12" type="curve" smooth="yes"/>
      <point x="234" y="-12"/>
      <point x="294" y="17"/>
      <point x="332" y="88" type="curve"/>
      <point x="336" y="88" type="line"/>
      <point x="340" y="14"/>
      <point x="374" y="-12"/>
      <point x="440" y="-12" type="curve" smooth="yes"/>
      <point x="470" y="-12"/>
      <point x="498" y="-8"/>
      <point x="520" y="0" type="curve"/>
      <point x="526" y="118" type="line"/>
      <point x="514" y="116"/>
      <point x="510" y="116"/>
      <point x="502" y="116" type="curve" smooth="yes"/>
      <point x="484" y="116"/>
      <point x="468" y="123"/>
      <point x="468" y="147" type="curve" smooth="yes"/>
      <point x="468" y="194"/>
      <point x="536" y="370"/>
      <point x="594" y="500" type="curve"/>
      <point x="436" y="500" type="line"/>
      <point x="406" y="408" type="line"/>
      <point x="402" y="408" type="line"/>
      <point x="382" y="486"/>
      <point x="334" y="512"/>
      <point x="276" y="512" type="curve" smooth="yes"/>
      <point x="159" y="512"/>
      <point x="26" y="389"/>
    </contour>
    <contour>
      <point x="332" y="522" type="move" name="aboveLC"/>
    </contour>
    <contour>
      <point x="280" y="-22" type="move" name="belowLC"/>
    </contour>
  </outline>
</glyph>
<glyph name="alphalatin" format="1">
  <advance width="558"/>
  <outline>
    <component base="a"/>
    <contour>
      <point x="324" y="522" type="move" name="aboveLC"/>
    </contour>
    <contour>
      <point x="250" y="-22" type="move" name="belowLC"/>
    </contour>
  </outline>
</glyph>
<glyph name="b.sups" format="1">
  <advance width="374"/>
  <outline>
    <contour>
      <point x="128" y="260" type="line"/>
      <point x="144" y="294" type="line"/>
      <point x="148" y="294" type="line"/>
      <point x="160" y="269"/>
      <point x="184" y="252"/>
      <point x="212" y="252" type="curve" smooth="yes"/>
      <point x="304" y="252"/>
      <point x="390" y="352"/>
      <point x="390" y="478" type="curve" smooth="yes"/>
      <point x="390" y="556"/>
      <point x="354" y="600"/>
      <point x="296" y="600" type="curve" smooth="yes"/>
      <point x="264" y="600"/>
      <point x="230" y="582"/>
      <point x="206" y="560" type="curve"/>
      <point x="202" y="560" type="line"/>
      <point x="223" y="624" type="line"/>
      <point x="242" y="720" type="line"/>
      <point x="130" y="720" type="line"/>
      <point x="38" y="260" type="line"/>
    </contour>
    <contour>
      <point x="248" y="510" type="curve" smooth="yes"/>
      <point x="264" y="510"/>
      <point x="276" y="496"/>
      <point x="276" y="464" type="curve" smooth="yes"/>
      <point x="276" y="392"/>
      <point x="240" y="342"/>
      <point x="204" y="342" type="curve" smooth="yes"/>
      <point x="192" y="342"/>
      <point x="178" y="350"/>
      <point x="172" y="366" type="curve"/>
      <point x="190" y="468" type="line"/>
      <point x="208" y="502"/>
      <point x="230" y="510"/>
    </contour>
  </outline>
</glyph>
<glyph name="backslash" format="1">
  <advance width="324"/>
  <outline>
    <contour>
      <point x="144" y="-160" type="line"/>
      <point x="248" y="-160" type="line"/>
      <point x="186" y="710" type="line"/>
      <point x="84" y="710" type="line"/>
    </contour>
  </outline>
</glyph>
<glyph name="bar" format="1">
  <advance width="264"/>
  <outline>
    <contour>
      <point x="86" y="-250" type="line"/>
      <point x="184" y="-250" type="line"/>
      <point x="184" y="750" type="line"/>
      <point x="86" y="750" type="line"/>
    </contour>
  </outline>
</glyph>
<glyph name="be" format="1">
  <advance width="538"/>
  <outline>
    <contour>
      <point x="236" y="-12" type="curve" smooth="yes"/>
      <point x="371" y="-24"/>
      <point x="496" y="80"/>
      <point x="511" y="249" type="curve" smooth="yes"/>
      <point x="522" y="382"/>
      <point x="455" y="454"/>
      <point x="366" y="462" type="curve" smooth="yes"/>
      <point x="308" y="467"/>
      <point x="250" y="449"/>
      <point x="209" y="393" type="curve"/>
      <point x="200" y="303" type="line"/>
      <point x="232" y="342"/>
      <point x="268" y="360"/>
      <point x="297" y="357" type="curve" smooth="yes"/>
      <point x="334" y="354"/>
      <point x="355" y="325"/>
      <point x="349" y="259" type="curve"/>
      <point x="341" y="172"/>
      <point x="309" y="109"/>
      <point x="254" y="114" type="curve" smooth="yes"/>
      <point x="209" y="118"/>
      <point x="184" y="157"/>
      <point x="192" y="242" type="curve" smooth="yes"/>
      <point x="218" y="538"/>
      <point x="260" y="530"/>
      <point x="432" y="538" type="curve" smooth="yes"/>
      <point x="477" y="540"/>
      <point x="534" y="548"/>
      <point x="563" y="568" type="curve"/>
      <point x="557" y="705" type="line"/>
      <point x="525" y="693"/>
      <point x="494" y="690"/>
      <point x="424" y="686" type="curve" smooth="yes"/>
      <point x="220" y="677"/>
      <point x="75" y="617"/>
      <point x="46" y="288" type="curve" smooth="yes"/>
      <point x="31" y="118"/>
      <point x="103" y="0"/>
    </contour>
  </outline>
</glyph>
<glyph name="beta" format="1">
  <advance width="592"/>
  <outline>
    <contour>
      <point x="170" y="64" type="curve"/>
      <point x="208" y="8"/>
      <point x="270" y="-12"/>
      <point x="322" y="-12" type="curve" smooth="yes"/>
      <point x="458" y="-12"/>
      <point x="548" y="82"/>
      <point x="548" y="202" type="curve" smooth="yes"/>
      <point x="548" y="286"/>
      <point x="504" y="344"/>
      <point x="436" y="366" type="curve"/>
      <point x="436" y="370" type="line"/>
      <point x="526" y="404"/>
      <point x="566" y="468"/>
      <point x="566" y="540" type="curve" smooth="yes"/>
      <point x="566" y="644"/>
      <point x="492" y="708"/>
      <point x="360" y="708" type="curve" smooth="yes"/>
      <point x="220" y="708"/>
      <point x="132" y="618"/>
      <point x="104" y="478" type="curve" smooth="yes"/>
      <point x="-28" y="-176" type="line"/>
      <point x="132" y="-176" type="line"/>
      <point x="142" y="-96"/>
      <point x="156" y="-16"/>
    </contour>
    <contour>
      <point x="200" y="190" type="curve"/>
      <point x="219" y="280"/>
      <point x="234" y="364"/>
      <point x="254" y="454" type="curve" smooth="yes"/>
      <point x="272" y="536"/>
      <point x="304" y="582"/>
      <point x="356" y="582" type="curve" smooth="yes"/>
      <point x="390" y="582"/>
      <point x="412" y="560"/>
      <point x="412" y="520" type="curve" smooth="yes"/>
      <point x="412" y="482"/>
      <point x="384" y="418"/>
      <point x="288" y="408" type="curve"/>
      <point x="306" y="294" type="line"/>
      <point x="314" y="298"/>
      <point x="322" y="300"/>
      <point x="332" y="300" type="curve" smooth="yes"/>
      <point x="374" y="300"/>
      <point x="400" y="268"/>
      <point x="400" y="222" type="curve" smooth="yes"/>
      <point x="400" y="153"/>
      <point x="350" y="118"/>
      <point x="300" y="118" type="curve" smooth="yes"/>
      <point x="266" y="118"/>
      <point x="230" y="138"/>
    </contour>
  </outline>
</glyph>
<glyph name="brackhalfbotleft" format="1">
  <advance width="344"/>
  <outline>
    <contour>
      <point x="78" y="278" type="line"/>
      <point x="-8" y="-152" type="line"/>
      <point x="204" y="-152" type="line"/>
      <point x="222" y="-68" type="line"/>
      <point x="128" y="-68" type="line"/>
      <point x="198" y="278" type="line"/>
    </contour>
  </outline>
</glyph>
<glyph name="brackhalftopleft" format="1">
  <advance width="344"/>
  <outline>
    <contour>
      <point x="198" y="278" type="line"/>
      <point x="266" y="624" type="line"/>
      <point x="360" y="624" type="line"/>
      <point x="376" y="708" type="line"/>
      <point x="164" y="708" type="line"/>
      <point x="78" y="278" type="line"/>
    </contour>
  </outline>
</glyph>
<glyph name="brackhalftopright" format="1">
  <advance width="346"/>
  <outline>
    <contour>
      <point x="276" y="278" type="line"/>
      <point x="362" y="708" type="line"/>
      <point x="150" y="708" type="line"/>
      <point x="132" y="624" type="line"/>
      <point x="226" y="624" type="line"/>
      <point x="156" y="278" type="line"/>
    </contour>
  </outline>
</glyph>
<glyph name="breve" format="1">
  <advance width="540"/>
  <outline>
    <component base="brevecmb" xOffset="220"/>
    <contour>
      <point x="334" y="522" type="move" name="_aboveLC"/>
    </contour>
    <contour>
      <point x="370" y="720" type="move" name="aboveLC"/>
    </contour>
  </outline>
</glyph>
<glyph name="brevebelowcmb" format="1">
  <advance width="0"/>
  <outline>
    <contour>
      <point x="-48" y="-216" type="curve" smooth="yes"/>
      <point x="44" y="-216"/>
      <point x="102" y="-150"/>
      <point x="120" y="-74" type="curve"/>
      <point x="32" y="-74" type="line"/>
      <point x="22" y="-106"/>
      <point x="2" y="-132"/>
      <point x="-32" y="-132" type="curve" smooth="yes"/>
      <point x="-66" y="-132"/>
      <point x="-76" y="-106"/>
      <point x="-72" y="-74" type="curve"/>
      <point x="-156" y="-74" type="line"/>
      <point x="-172" y="-150"/>
      <point x="-136" y="-216"/>
    </contour>
    <contour>
      <point x="-6" y="-30" type="move" name="_belowLC"/>
    </contour>
  </outline>
</glyph>
<glyph name="brevecmb" format="1">
  <advance width="0"/>
  <outline>
    <contour>
      <point x="112" y="574" type="curve" smooth="yes"/>
      <point x="204" y="574"/>
      <point x="262" y="640"/>
      <point x="280" y="716" type="curve"/>
      <point x="192" y="716" type="line"/>
      <point x="182" y="684"/>
      <point x="162" y="658"/>
      <point x="128" y="658" type="curve" smooth="yes"/>
      <point x="94" y="658"/>
      <point x="84" y="684"/>
      <point x="88" y="716" type="curve"/>
      <point x="4" y="716" type="line"/>
      <point x="-12" y="640"/>
      <point x="24" y="574"/>
    </contour>
    <contour>
      <point x="114" y="522" type="move" name="_aboveLC"/>
    </contour>
  </outline>
</glyph>
<glyph name="brevecmb.cap" format="1">
  <advance width="0"/>
  <outline>
    <contour>
      <point x="120" y="700" type="curve" smooth="yes"/>
      <point x="210" y="700"/>
      <point x="256" y="746"/>
      <point x="280" y="822" type="curve"/>
      <point x="194" y="822" type="line"/>
      <point x="184" y="796"/>
      <point x="165" y="778"/>
      <point x="135" y="778" type="curve" smooth="yes"/>
      <point x="107" y="778"/>
      <point x="92" y="794"/>
      <point x="94" y="822" type="curve"/>
      <point x="10" y="822" type="line"/>
      <point x="2" y="746"/>
      <point x="42" y="700"/>
    </contour>
    <contour>
      <point x="136" y="682" type="move" name="_aboveUC"/>
    </contour>
  </outline>
</glyph>
<glyph name="brevecmb.cyrcap" format="1">
  <advance width="0"/>
  <outline>
    <contour>
      <point x="118" y="697" type="curve" smooth="yes"/>
      <point x="235" y="697"/>
      <point x="297" y="759"/>
      <point x="315" y="831" type="curve"/>
      <point x="190" y="831" type="line"/>
      <point x="180" y="794"/>
      <point x="160" y="775"/>
      <point x="134" y="775" type="curve" smooth="yes"/>
      <point x="108" y="775"/>
      <point x="95" y="794"/>
      <point x="100" y="831" type="curve"/>
      <point x="-25" y="831" type="line"/>
      <point x="-36" y="759"/>
      <point x="1" y="697"/>
    </contour>
    <contour>
      <point x="136" y="682" type="move" name="_aboveUC"/>
    </contour>
  </outline>
</glyph>
<glyph name="brevegrave.cap" format="1">
  <advance width="0"/>
  <outline>
    <contour>
      <point x="175" y="928" type="line"/>
      <point x="59" y="928" type="line"/>
      <point x="113" y="808" type="line"/>
      <point x="191" y="808" type="line"/>
    </contour>
    <contour>
      <point x="120" y="700" type="curve" smooth="yes"/>
      <point x="210" y="700"/>
      <point x="256" y="746"/>
      <point x="280" y="822" type="curve"/>
      <point x="204" y="822" type="line"/>
      <point x="194" y="786"/>
      <point x="165" y="770"/>
      <point x="135" y="770" type="curve" smooth="yes"/>
      <point x="107" y="770"/>
      <point x="82" y="784"/>
      <point x="84" y="822" type="curve"/>
      <point x="10" y="822" type="line"/>
      <point x="2" y="746"/>
      <point x="42" y="700"/>
    </contour>
    <contour>
      <point x="135" y="682" type="move" name="_aboveUC"/>
    </contour>
  </outline>
</glyph>
<glyph name="brevehoi" format="1">
  <advance width="0"/>
  <outline>
    <contour>
      <point x="36" y="814" type="line"/>
      <point x="80" y="810"/>
      <point x="92" y="802"/>
      <point x="92" y="788" type="curve" smooth="yes"/>
      <point x="92" y="770"/>
      <point x="80" y="762"/>
      <point x="60" y="758" type="curve"/>
      <point x="60" y="704" type="line"/>
      <point x="138" y="714"/>
      <point x="196" y="738"/>
      <point x="196" y="814" type="curve" smooth="yes"/>
      <point x="196" y="850"/>
      <point x="164" y="878"/>
      <point x="64" y="880" type="curve"/>
    </contour>
    <contour>
      <point x="64" y="574" type="curve" smooth="yes"/>
      <point x="156" y="574"/>
      <point x="214" y="640"/>
      <point x="232" y="716" type="curve"/>
      <point x="160" y="716" type="line"/>
      <point x="148" y="676"/>
      <point x="119" y="652"/>
      <point x="80" y="652" type="curve" smooth="yes"/>
      <point x="36" y="652"/>
      <point x="18" y="678"/>
      <point x="24" y="716" type="curve"/>
      <point x="-44" y="716" type="line"/>
      <point x="-60" y="640"/>
      <point x="-24" y="574"/>
    </contour>
    <contour>
      <point x="66" y="522" type="move" name="_aboveLC"/>
    </contour>
  </outline>
</glyph>
<glyph name="brevehoi.cap" format="1">
  <advance width="0"/>
  <outline>
    <contour>
      <point x="120" y="700" type="curve" smooth="yes"/>
      <point x="210" y="700"/>
      <point x="256" y="746"/>
      <point x="280" y="822" type="curve"/>
      <point x="204" y="822" type="line"/>
      <point x="194" y="786"/>
      <point x="165" y="770"/>
      <point x="135" y="770" type="curve" smooth="yes"/>
      <point x="107" y="770"/>
      <point x="82" y="784"/>
      <point x="84" y="822" type="curve"/>
      <point x="10" y="822" type="line"/>
      <point x="2" y="746"/>
      <point x="42" y="700"/>
    </contour>
    <contour>
      <point x="80" y="912" type="line"/>
      <point x="124" y="908"/>
      <point x="138" y="900"/>
      <point x="138" y="886" type="curve" smooth="yes"/>
      <point x="138" y="866"/>
      <point x="124" y="860"/>
      <point x="104" y="856" type="curve"/>
      <point x="106" y="806" type="line"/>
      <point x="184" y="812"/>
      <point x="240" y="838"/>
      <point x="240" y="906" type="curve" smooth="yes"/>
      <point x="240" y="944"/>
      <point x="212" y="972"/>
      <point x="108" y="976" type="curve"/>
    </contour>
    <contour>
      <point x="135" y="682" type="move" name="_aboveUC"/>
    </contour>
  </outline>
</glyph>
<glyph name="brevetilde.cap" format="1">
  <advance width="0"/>
  <outline>
    <contour>
      <point x="120" y="700" type="curve" smooth="yes"/>
      <point x="210" y="700"/>
      <point x="256" y="746"/>
      <point x="280" y="822" type="curve"/>
      <point x="204" y="822" type="line"/>
      <point x="194" y="786"/>
      <point x="165" y="770"/>
      <point x="135" y="770" type="curve" smooth="yes"/>
      <point x="107" y="770"/>
      <point x="82" y="784"/>
      <point x="84" y="822" type="curve"/>
      <point x="10" y="822" type="line"/>
      <point x="2" y="746"/>
      <point x="42" y="700"/>
    </contour>
    <contour>
      <point x="3" y="852" type="curve"/>
      <point x="73" y="852" type="line"/>
      <point x="83" y="876"/>
      <point x="99" y="888"/>
      <point x="115" y="888" type="curve" smooth="yes"/>
      <point x="141" y="888"/>
      <point x="165" y="852"/>
      <point x="209" y="852" type="curve" smooth="yes"/>
      <point x="251" y="852"/>
      <point x="299" y="886"/>
      <point x="325" y="970" type="curve"/>
      <point x="257" y="970" type="line"/>
      <point x="245" y="944"/>
      <point x="229" y="932"/>
      <point x="215" y="932" type="curve" smooth="yes"/>
      <point x="189" y="932"/>
      <point x="163" y="970"/>
      <point x="119" y="970" type="curve" smooth="yes"/>
      <point x="77" y="970"/>
      <point x="29" y="934"/>
    </contour>
    <contour>
      <point x="135" y="682" type="move" name="_aboveUC"/>
    </contour>
  </outline>
</glyph>
<glyph name="bstroke" format="1">
  <advance width="556"/>
  <outline>
    <contour>
      <point x="434" y="552" type="line"/>
      <point x="450" y="628" type="line"/>
      <point x="140" y="628" type="line"/>
      <point x="66" y="622" type="line"/>
      <point x="52" y="552" type="line"/>
    </contour>
    <contour>
      <point x="140" y="0" type="line"/>
      <point x="162" y="50" type="line"/>
      <point x="164" y="50" type="line"/>
      <point x="182" y="12"/>
      <point x="222" y="-12"/>
      <point x="264" y="-12" type="curve" smooth="yes"/>
      <point x="402" y="-12"/>
      <point x="526" y="134"/>
      <point x="526" y="318" type="curve" smooth="yes"/>
      <point x="526" y="430"/>
      <point x="474" y="492"/>
      <point x="386" y="492" type="curve" smooth="yes"/>
      <point x="340" y="492"/>
      <point x="292" y="472"/>
      <point x="250" y="438" type="curve"/>
      <point x="248" y="438" type="line"/>
      <point x="274" y="530" type="line"/>
      <point x="308" y="696" type="line"/>
      <point x="148" y="696" type="line"/>
      <point x="8" y="0" type="line"/>
    </contour>
    <contour>
      <point x="314" y="362" type="curve" smooth="yes"/>
      <point x="342" y="362"/>
      <point x="360" y="343"/>
      <point x="360" y="298" type="curve" smooth="yes"/>
      <point x="360" y="192"/>
      <point x="310" y="118"/>
      <point x="252" y="118" type="curve" smooth="yes"/>
      <point x="232" y="118"/>
      <point x="210" y="130"/>
      <point x="200" y="156" type="curve"/>
      <point x="230" y="306" type="line"/>
      <point x="254" y="350"/>
      <point x="288" y="362"/>
    </contour>
  </outline>
</glyph>
<glyph name="caroncmb.cap" format="1">
  <advance width="0"/>
  <outline>
    <contour>
      <point x="314" y="822" type="line"/>
      <point x="188" y="822" type="line"/>
      <point x="130" y="762" type="line"/>
      <point x="128" y="762" type="line"/>
      <point x="90" y="822" type="line"/>
      <point x="-26" y="822" type="line"/>
      <point x="42" y="700" type="line"/>
      <point x="198" y="700" type="line"/>
    </contour>
    <contour>
      <point x="136" y="682" type="move" name="_aboveUC"/>
    </contour>
  </outline>
</glyph>
<glyph name="ceilingleft" format="1">
  <advance width="344"/>
  <outline>
    <contour>
      <point x="142" y="0" type="line"/>
      <point x="262" y="608" type="line"/>
      <point x="356" y="608" type="line"/>
      <point x="372" y="692" type="line"/>
      <point x="160" y="692" type="line"/>
      <point x="22" y="0" type="line"/>
    </contour>
  </outline>
</glyph>
<glyph name="checkedbox" format="1">
  <advance width="776"/>
  <outline>
    <contour>
      <point x="616" y="584" type="line"/>
      <point x="616" y="50" type="line"/>
      <point x="130" y="50" type="line"/>
      <point x="130" y="584" type="line"/>
    </contour>
    <contour>
      <point x="70" y="-10" type="line"/>
      <point x="640" y="-10" type="line"/>
      <point x="706" y="66" type="line"/>
      <point x="706" y="674" type="line"/>
      <point x="146" y="674" type="line"/>
      <point x="70" y="608" type="line"/>
    </contour>
    <contour>
      <point x="402" y="127" type="line"/>
      <point x="538" y="419"/>
      <point x="698" y="613"/>
      <point x="846" y="735" type="curve"/>
      <point x="766" y="819" type="line"/>
      <point x="614" y="684"/>
      <point x="461" y="466"/>
      <point x="344" y="227" type="curve"/>
      <point x="340" y="227" type="line"/>
      <point x="328" y="304"/>
      <point x="312" y="364"/>
      <point x="282" y="444" type="curve"/>
      <point x="169" y="385" type="line"/>
      <point x="214" y="292"/>
      <point x="236" y="214"/>
      <point x="252" y="110" type="curve"/>
    </contour>
  </outline>
</glyph>
<glyph name="circumflexacute" format="1">
  <advance width="0"/>
  <outline>
    <contour>
      <point x="-76" y="574" type="line"/>
      <point x="26" y="574" type="line"/>
      <point x="78" y="636" type="line"/>
      <point x="82" y="636" type="line"/>
      <point x="112" y="574" type="line"/>
      <point x="204" y="574" type="line"/>
      <point x="154" y="704" type="line"/>
      <point x="28" y="704" type="line"/>
    </contour>
    <contour>
      <point x="188" y="646" type="line"/>
      <point x="274" y="646" type="line"/>
      <point x="390" y="766" type="line"/>
      <point x="274" y="766" type="line"/>
    </contour>
    <contour>
      <point x="66" y="522" type="move" name="_aboveLC"/>
    </contour>
  </outline>
</glyph>
<glyph name="circumflexbreve" format="1">
  <advance width="0"/>
  <outline>
    <contour>
      <point x="160" y="686" type="line"/>
      <point x="14" y="686" type="line"/>
      <point x="-84" y="574" type="line"/>
      <point x="24" y="574" type="line"/>
      <point x="76" y="630" type="line"/>
      <point x="80" y="630" type="line"/>
      <point x="114" y="574" type="line"/>
      <point x="212" y="574" type="line"/>
    </contour>
    <contour>
      <point x="94" y="722" type="curve" smooth="yes"/>
      <point x="186" y="722"/>
      <point x="238" y="774"/>
      <point x="254" y="840" type="curve"/>
      <point x="184" y="840" type="line"/>
      <point x="174" y="814"/>
      <point x="150" y="796"/>
      <point x="110" y="796" type="curve" smooth="yes"/>
      <point x="68" y="796"/>
      <point x="54" y="814"/>
      <point x="52" y="840" type="curve"/>
      <point x="-16" y="840" type="line"/>
      <point x="-28" y="774"/>
      <point x="2" y="722"/>
    </contour>
    <contour>
      <point x="66" y="522" type="move" name="_aboveLC"/>
    </contour>
  </outline>
</glyph>
<glyph name="circumflexbreve.cap" format="1">
  <advance width="0"/>
  <outline>
    <contour>
      <point x="-35" y="700" type="line"/>
      <point x="77" y="700" type="line"/>
      <point x="133" y="752" type="line"/>
      <point x="137" y="752" type="line"/>
      <point x="173" y="700" type="line"/>
      <point x="285" y="700" type="line"/>
      <point x="217" y="816" type="line"/>
      <point x="79" y="816" type="line"/>
    </contour>
    <contour>
      <point x="148" y="852" type="curve" smooth="yes"/>
      <point x="238" y="852"/>
      <point x="284" y="894"/>
      <point x="308" y="970" type="curve"/>
      <point x="232" y="970" type="line"/>
      <point x="222" y="934"/>
      <point x="193" y="922"/>
      <point x="163" y="922" type="curve" smooth="yes"/>
      <point x="135" y="922"/>
      <point x="110" y="932"/>
      <point x="112" y="970" type="curve"/>
      <point x="38" y="970" type="line"/>
      <point x="30" y="894"/>
      <point x="70" y="852"/>
    </contour>
    <contour>
      <point x="135" y="682" type="move" name="_aboveUC"/>
    </contour>
  </outline>
</glyph>
<glyph name="circumflexgrave" format="1">
  <advance width="0"/>
  <outline>
    <contour>
      <point x="292" y="766" type="line"/>
      <point x="176" y="766" type="line"/>
      <point x="244" y="646" type="line"/>
      <point x="332" y="646" type="line"/>
    </contour>
    <contour>
      <point x="-76" y="574" type="line"/>
      <point x="26" y="574" type="line"/>
      <point x="78" y="636" type="line"/>
      <point x="82" y="636" type="line"/>
      <point x="112" y="574" type="line"/>
      <point x="204" y="574" type="line"/>
      <point x="154" y="704" type="line"/>
      <point x="28" y="704" type="line"/>
    </contour>
    <contour>
      <point x="66" y="522" type="move" name="_aboveLC"/>
    </contour>
  </outline>
</glyph>
<glyph name="circumflexgrave.cap" format="1">
  <advance width="0"/>
  <outline>
    <contour>
      <point x="351" y="890" type="line"/>
      <point x="231" y="890" type="line"/>
      <point x="293" y="768" type="line"/>
      <point x="383" y="768" type="line"/>
    </contour>
    <contour>
      <point x="-35" y="700" type="line"/>
      <point x="77" y="700" type="line"/>
      <point x="133" y="752" type="line"/>
      <point x="137" y="752" type="line"/>
      <point x="173" y="700" type="line"/>
      <point x="285" y="700" type="line"/>
      <point x="217" y="816" type="line"/>
      <point x="79" y="816" type="line"/>
    </contour>
    <contour>
      <point x="135" y="682" type="move" name="_aboveUC"/>
    </contour>
  </outline>
</glyph>
<glyph name="circumflexhoi" format="1">
  <advance width="0"/>
  <outline>
    <contour>
      <point x="190" y="738" type="line"/>
      <point x="234" y="734"/>
      <point x="246" y="726"/>
      <point x="246" y="712" type="curve" smooth="yes"/>
      <point x="246" y="692"/>
      <point x="236" y="686"/>
      <point x="214" y="680" type="curve"/>
      <point x="214" y="628" type="line"/>
      <point x="292" y="638"/>
      <point x="354" y="660"/>
      <point x="354" y="736" type="curve" smooth="yes"/>
      <point x="354" y="774"/>
      <point x="320" y="800"/>
      <point x="218" y="804" type="curve"/>
    </contour>
    <contour>
      <point x="-76" y="574" type="line"/>
      <point x="26" y="574" type="line"/>
      <point x="78" y="636" type="line"/>
      <point x="82" y="636" type="line"/>
      <point x="112" y="574" type="line"/>
      <point x="204" y="574" type="line"/>
      <point x="154" y="704" type="line"/>
      <point x="28" y="704" type="line"/>
    </contour>
    <contour>
      <point x="66" y="522" type="move" name="_aboveLC"/>
    </contour>
  </outline>
</glyph>
<glyph name="circumflexhoi.cap" format="1">
  <advance width="0"/>
  <outline>
    <contour>
      <point x="-35" y="700" type="line"/>
      <point x="77" y="700" type="line"/>
      <point x="133" y="752" type="line"/>
      <point x="137" y="752" type="line"/>
      <point x="173" y="700" type="line"/>
      <point x="285" y="700" type="line"/>
      <point x="217" y="816" type="line"/>
      <point x="79" y="816" type="line"/>
    </contour>
    <contour>
      <point x="248" y="854" type="line"/>
      <point x="292" y="850"/>
      <point x="306" y="842"/>
      <point x="306" y="828" type="curve" smooth="yes"/>
      <point x="306" y="808"/>
      <point x="292" y="802"/>
      <point x="272" y="798" type="curve"/>
      <point x="274" y="748" type="line"/>
      <point x="352" y="754"/>
      <point x="408" y="780"/>
      <point x="408" y="848" type="curve" smooth="yes"/>
      <point x="408" y="886"/>
      <point x="380" y="914"/>
      <point x="276" y="918" type="curve"/>
    </contour>
    <contour>
      <point x="135" y="682" type="move" name="_aboveUC"/>
    </contour>
  </outline>
</glyph>
<glyph name="circumflextilde" format="1">
  <advance width="0"/>
  <outline>
    <contour>
      <point x="160" y="686" type="line"/>
      <point x="14" y="686" type="line"/>
      <point x="-84" y="574" type="line"/>
      <point x="24" y="574" type="line"/>
      <point x="76" y="630" type="line"/>
      <point x="80" y="630" type="line"/>
      <point x="114" y="574" type="line"/>
      <point x="212" y="574" type="line"/>
    </contour>
    <contour>
      <point x="16" y="722" type="line"/>
      <point x="26" y="748"/>
      <point x="40" y="758"/>
      <point x="54" y="758" type="curve" smooth="yes"/>
      <point x="80" y="758"/>
      <point x="102" y="722"/>
      <point x="146" y="722" type="curve" smooth="yes"/>
      <point x="188" y="722"/>
      <point x="234" y="758"/>
      <point x="260" y="840" type="curve"/>
      <point x="192" y="840" type="line"/>
      <point x="182" y="814"/>
      <point x="166" y="804"/>
      <point x="152" y="804" type="curve" smooth="yes"/>
      <point x="126" y="804"/>
      <point x="104" y="840"/>
      <point x="60" y="840" type="curve" smooth="yes"/>
      <point x="18" y="840"/>
      <point x="-28" y="804"/>
      <point x="-54" y="722" type="curve"/>
    </contour>
    <contour>
      <point x="66" y="522" type="move" name="_aboveLC"/>
    </contour>
  </outline>
</glyph>
<glyph name="commabelowcmb" format="1">
  <advance width="0"/>
  <outline>
    <contour>
      <point x="-86" y="-98" type="line"/>
      <point x="-64" y="-106"/>
      <point x="-52" y="-116"/>
      <point x="-52" y="-130" type="curve" smooth="yes"/>
      <point x="-52" y="-156"/>
      <point x="-76" y="-166"/>
      <point x="-138" y="-170" type="curve"/>
      <point x="-134" y="-232" type="line"/>
      <point x="-28" y="-228"/>
      <point x="60" y="-210"/>
      <point x="60" y="-124" type="curve" smooth="yes"/>
      <point x="60" y="-78"/>
      <point x="22" y="-54"/>
      <point x="-46" y="-44" type="curve"/>
    </contour>
    <contour>
      <point x="-6" y="-30" type="move" name="_belowLC"/>
    </contour>
  </outline>
</glyph>
<glyph name="dblgravecmb.cap" format="1">
  <advance width="0"/>
  <outline>
    <contour>
      <point x="224" y="822" type="line"/>
      <point x="90" y="822" type="line"/>
      <point x="154" y="700" type="line"/>
      <point x="260" y="700" type="line"/>
    </contour>
    <contour>
      <point x="46" y="822" type="line"/>
      <point x="-88" y="822" type="line"/>
      <point x="-24" y="700" type="line"/>
      <point x="82" y="700" type="line"/>
    </contour>
    <contour>
      <point x="136" y="682" type="move" name="_aboveUC"/>
    </contour>
  </outline>
</glyph>
<glyph name="diamondblack" format="1">
  <advance width="340"/>
  <outline>
    <contour>
      <point x="170" y="94" type="line"/>
      <point x="334" y="262" type="line"/>
      <point x="170" y="430" type="line"/>
      <point x="6" y="262" type="line"/>
    </contour>
  </outline>
</glyph>
<glyph name="dieresiscaron" format="1">
  <advance width="0"/>
  <outline>
    <contour>
      <point x="26" y="740" type="line"/>
      <point x="170" y="740" type="line"/>
      <point x="268" y="852" type="line"/>
      <point x="164" y="852" type="line"/>
      <point x="110" y="796" type="line"/>
      <point x="106" y="796" type="line"/>
      <point x="74" y="852" type="line"/>
      <point x="-28" y="852" type="line"/>
    </contour>
    <contour>
      <point x="-32" y="566" type="curve" smooth="yes"/>
      <point x="12" y="566"/>
      <point x="44" y="602"/>
      <point x="44" y="644" type="curve" smooth="yes"/>
      <point x="44" y="674"/>
      <point x="22" y="696"/>
      <point x="-12" y="696" type="curve" smooth="yes"/>
      <point x="-54" y="696"/>
      <point x="-86" y="662"/>
      <point x="-86" y="620" type="curve" smooth="yes"/>
      <point x="-86" y="590"/>
      <point x="-64" y="566"/>
    </contour>
    <contour>
      <point x="166" y="566" type="curve" smooth="yes"/>
      <point x="208" y="566"/>
      <point x="240" y="602"/>
      <point x="240" y="644" type="curve" smooth="yes"/>
      <point x="240" y="674"/>
      <point x="218" y="696"/>
      <point x="186" y="696" type="curve" smooth="yes"/>
      <point x="144" y="696"/>
      <point x="112" y="662"/>
      <point x="112" y="620" type="curve" smooth="yes"/>
      <point x="112" y="590"/>
      <point x="134" y="566"/>
    </contour>
    <contour>
      <point x="66" y="522" type="move" name="_aboveLC"/>
    </contour>
  </outline>
</glyph>
<glyph name="dieresiscmb.cap" format="1">
  <advance width="0"/>
  <outline>
    <contour>
      <point x="26" y="696" type="curve" smooth="yes"/>
      <point x="74" y="696"/>
      <point x="108" y="740"/>
      <point x="108" y="780" type="curve" smooth="yes"/>
      <point x="108" y="820"/>
      <point x="78" y="844"/>
      <point x="44" y="844" type="curve" smooth="yes"/>
      <point x="-4" y="844"/>
      <point x="-38" y="800"/>
      <point x="-38" y="760" type="curve" smooth="yes"/>
      <point x="-38" y="720"/>
      <point x="-10" y="696"/>
    </contour>
    <contour>
      <point x="226" y="696" type="curve" smooth="yes"/>
      <point x="274" y="696"/>
      <point x="308" y="740"/>
      <point x="308" y="780" type="curve" smooth="yes"/>
      <point x="308" y="820"/>
      <point x="278" y="844"/>
      <point x="244" y="844" type="curve" smooth="yes"/>
      <point x="196" y="844"/>
      <point x="162" y="800"/>
      <point x="162" y="760" type="curve" smooth="yes"/>
      <point x="162" y="720"/>
      <point x="190" y="696"/>
    </contour>
    <contour>
      <point x="136" y="682" type="move" name="_aboveUC"/>
    </contour>
  </outline>
</glyph>
<glyph name="digamma" format="1">
  <advance width="419"/>
  <outline>
    <contour>
      <point x="187" y="122" type="curve"/>
      <point x="355" y="122" type="line"/>
      <point x="376" y="226" type="line"/>
      <point x="206" y="226" type="line"/>
      <point x="234" y="374" type="line"/>
      <point x="425" y="374" type="line"/>
      <point x="449" y="498" type="line"/>
      <point x="112" y="498" type="line"/>
      <point x="-23" y="-176" type="line"/>
      <point x="137" y="-176" type="line"/>
      <point x="153" y="-67"/>
      <point x="167" y="22"/>
    </contour>
    <contour>
      <point x="207" y="522" type="move" name="aboveLC"/>
    </contour>
  </outline>
</glyph>
<glyph name="dotaccent" format="1">
  <advance width="540"/>
  <outline>
    <component base="dotaccentcmb" xOffset="220"/>
    <contour>
      <point x="334" y="522" type="move" name="_aboveLC"/>
    </contour>
  </outline>
</glyph>
<glyph name="dotlessj" format="1">
  <advance width="278"/>
  <outline>
    <contour>
      <point x="270" y="500" type="line"/>
      <point x="110" y="500" type="line"/>
      <point x="12" y="10" type="line"/>
      <point x="0" y="-42"/>
      <point x="-12" y="-62"/>
      <point x="-44" y="-62" type="curve" smooth="yes"/>
      <point x="-58" y="-62"/>
      <point x="-72" y="-58"/>
      <point x="-86" y="-50" type="curve"/>
      <point x="-134" y="-164" type="line"/>
      <point x="-98" y="-182"/>
      <point x="-66" y="-188"/>
      <point x="-30" y="-188" type="curve" smooth="yes"/>
      <point x="94" y="-188"/>
      <point x="148" y="-102"/>
      <point x="170" y="2" type="curve" smooth="yes"/>
    </contour>
    <contour>
      <point x="198" y="522" type="move" name="aboveLC"/>
    </contour>
  </outline>
</glyph>
<glyph name="dzhe" format="1">
  <advance width="552"/>
  <outline>
    <contour>
      <point x="261" y="-172" type="line"/>
      <point x="282" y="-30" type="line"/>
      <point x="158" y="-30" type="line"/>
      <point x="103" y="-172" type="line"/>
    </contour>
    <component base="u"/>
  </outline>
</glyph>
<glyph name="e.sups" format="1">
  <advance width="336"/>
  <outline>
    <contour>
      <point x="50" y="396" type="curve" smooth="yes"/>
      <point x="50" y="307"/>
      <point x="108" y="252"/>
      <point x="193" y="252" type="curve" smooth="yes"/>
      <point x="229" y="252"/>
      <point x="271" y="262"/>
      <point x="309" y="283" type="curve"/>
      <point x="277" y="353" type="line"/>
      <point x="256" y="340"/>
      <point x="241" y="334"/>
      <point x="225" y="334" type="curve" smooth="yes"/>
      <point x="185" y="334"/>
      <point x="155" y="350"/>
      <point x="153" y="392" type="curve"/>
      <point x="332" y="392" type="line"/>
      <point x="338" y="402"/>
      <point x="351" y="439"/>
      <point x="351" y="472" type="curve" smooth="yes"/>
      <point x="351" y="542"/>
      <point x="322" y="600"/>
      <point x="240" y="600" type="curve" smooth="yes"/>
      <point x="150" y="600"/>
      <point x="50" y="517"/>
    </contour>
    <contour>
      <point x="161" y="458" type="line"/>
      <point x="176" y="498"/>
      <point x="202" y="516"/>
      <point x="226" y="516" type="curve" smooth="yes"/>
      <point x="253" y="516"/>
      <point x="261" y="499"/>
      <point x="261" y="478" type="curve" smooth="yes"/>
      <point x="261" y="470"/>
      <point x="260" y="464"/>
      <point x="259" y="458" type="curve"/>
    </contour>
  </outline>
</glyph>
<glyph name="eacute.sups" format="1">
  <advance width="336"/>
  <outline>
    <contour>
      <point x="190" y="639" type="line"/>
      <point x="272" y="639" type="line"/>
      <point x="376" y="740" type="line"/>
      <point x="267" y="740" type="line"/>
    </contour>
    <component base="e.sups"/>
  </outline>
</glyph>
<glyph name="egrave.sups" format="1">
  <advance width="336"/>
  <outline>
    <contour>
      <point x="228" y="639" type="line"/>
      <point x="304" y="639" type="line"/>
      <point x="266" y="740" type="line"/>
      <point x="166" y="740" type="line"/>
    </contour>
    <component base="e.sups"/>
  </outline>
</glyph>
<glyph name="em" format="1">
  <advance width="617"/>
  <outline>
    <contour>
      <point x="8" y="0" type="line"/>
      <point x="146" y="0" type="line"/>
      <point x="168" y="112" type="line" smooth="yes"/>
      <point x="179" y="167"/>
      <point x="188" y="277"/>
      <point x="194" y="334" type="curve"/>
      <point x="198" y="334" type="line"/>
      <point x="203" y="291"/>
      <point x="208" y="234"/>
      <point x="213" y="191" type="curve"/>
      <point x="228" y="43" type="line"/>
      <point x="308" y="43" type="line"/>
      <point x="379" y="191" type="line"/>
      <point x="401" y="234"/>
      <point x="429" y="289"/>
      <point x="452" y="334" type="curve"/>
      <point x="455" y="334" type="line"/>
      <point x="438" y="277"/>
      <point x="404" y="167"/>
      <point x="393" y="112" type="curve" smooth="yes"/>
      <point x="370" y="0" type="line"/>
      <point x="510" y="0" type="line"/>
      <point x="609" y="498" type="line"/>
      <point x="434" y="498" type="line"/>
      <point x="361" y="337" type="line" smooth="yes"/>
      <point x="342" y="297"/>
      <point x="326" y="264"/>
      <point x="310" y="233" type="curve"/>
      <point x="306" y="233" type="line"/>
      <point x="303" y="264"/>
      <point x="301" y="297"/>
      <point x="297" y="337" type="curve" smooth="yes"/>
      <point x="284" y="498" type="line"/>
      <point x="107" y="498" type="line"/>
    </contour>
  </outline>
</glyph>
<glyph name="emdash" format="1">
  <advance width="772"/>
  <outline>
    <contour>
      <point x="34" y="202" type="line"/>
      <point x="718" y="202" type="line"/>
      <point x="738" y="304" type="line"/>
      <point x="54" y="304" type="line"/>
    </contour>
  </outline>
</glyph>
<glyph name="eng" format="1">
  <advance width="562"/>
  <outline>
    <contour>
      <point x="8" y="0" type="line"/>
      <point x="168" y="0" type="line"/>
      <point x="230" y="320" type="line"/>
      <point x="266" y="358"/>
      <point x="290" y="376"/>
      <point x="318" y="376" type="curve" smooth="yes"/>
      <point x="344" y="376"/>
      <point x="360" y="362"/>
      <point x="360" y="334" type="curve" smooth="yes"/>
      <point x="360" y="322"/>
      <point x="356" y="308"/>
      <point x="352" y="290" type="curve" smooth="yes"/>
      <point x="296" y="10" type="line"/>
      <point x="284" y="-42"/>
      <point x="272" y="-62"/>
      <point x="240" y="-62" type="curve" smooth="yes"/>
      <point x="226" y="-62"/>
      <point x="212" y="-58"/>
      <point x="198" y="-50" type="curve"/>
      <point x="150" y="-164" type="line"/>
      <point x="186" y="-182"/>
      <point x="218" y="-188"/>
      <point x="254" y="-188" type="curve" smooth="yes"/>
      <point x="378" y="-188"/>
      <point x="432" y="-102"/>
      <point x="454" y="2" type="curve"/>
      <point x="516" y="310" type="line" smooth="yes"/>
      <point x="521" y="334"/>
      <point x="524" y="360"/>
      <point x="524" y="382" type="curve" smooth="yes"/>
      <point x="524" y="468"/>
      <point x="488" y="512"/>
      <point x="406" y="512" type="curve" smooth="yes"/>
      <point x="342" y="512"/>
      <point x="286" y="476"/>
      <point x="240" y="436" type="curve"/>
      <point x="236" y="436" type="line"/>
      <point x="236" y="500" type="line"/>
      <point x="106" y="500" type="line"/>
    </contour>
  </outline>
</glyph>
<glyph name="er" format="1">
  <advance width="560"/>
  <outline>
    <component base="p"/>
    <contour>
      <point x="366" y="522" type="move" name="aboveLC"/>
    </contour>
    <contour>
      <point x="44" y="-218" type="move" name="belowLC"/>
    </contour>
  </outline>
</glyph>
<glyph name="es" format="1">
  <advance width="446"/>
  <outline>
    <component base="c"/>
    <contour>
      <point x="324" y="522" type="move" name="aboveLC"/>
    </contour>
    <contour>
      <point x="224" y="-22" type="move" name="belowLC"/>
    </contour>
    <contour>
      <point x="208" y="0" type="move" name="baseLC"/>
    </contour>
  </outline>
</glyph>
<glyph name="f.sups" format="1">
  <advance width="233"/>
  <outline>
    <contour>
      <point x="64" y="506" type="line"/>
      <point x="272" y="506" type="line"/>
      <point x="290" y="592" type="line"/>
      <point x="130" y="592" type="line"/>
      <point x="78" y="586" type="line"/>
    </contour>
    <contour>
      <point x="56" y="260" type="line"/>
      <point x="167" y="260" type="line"/>
      <point x="237" y="601" type="line" smooth="yes"/>
      <point x="244" y="637"/>
      <point x="256" y="649"/>
      <point x="279" y="649" type="curve" smooth="yes"/>
      <point x="289" y="649"/>
      <point x="302" y="644"/>
      <point x="309" y="640" type="curve"/>
      <point x="343" y="716" type="line"/>
      <point x="320" y="728"/>
      <point x="293" y="735"/>
      <point x="266" y="735" type="curve" smooth="yes"/>
      <point x="179" y="735"/>
      <point x="140" y="674"/>
      <point x="126" y="605" type="curve" smooth="yes"/>
    </contour>
  </outline>
</glyph>
<glyph name="fisheye" format="1">
  <advance width="474"/>
  <outline>
    <contour>
      <point x="238" y="134" type="curve" smooth="yes"/>
      <point x="170" y="134"/>
      <point x="120" y="186"/>
      <point x="120" y="262" type="curve" smooth="yes"/>
      <point x="120" y="338"/>
      <point x="170" y="390"/>
      <point x="238" y="390" type="curve" smooth="yes"/>
      <point x="306" y="390"/>
      <point x="356" y="338"/>
      <point x="356" y="262" type="curve" smooth="yes"/>
      <point x="356" y="186"/>
      <point x="306" y="134"/>
    </contour>
    <contour>
      <point x="238" y="192" type="curve" smooth="yes"/>
      <point x="274" y="192"/>
      <point x="304" y="222"/>
      <point x="304" y="262" type="curve" smooth="yes"/>
      <point x="304" y="302"/>
      <point x="274" y="332"/>
      <point x="238" y="332" type="curve" smooth="yes"/>
      <point x="202" y="332"/>
      <point x="172" y="302"/>
      <point x="172" y="262" type="curve" smooth="yes"/>
      <point x="172" y="222"/>
      <point x="202" y="192"/>
    </contour>
    <contour>
      <point x="238" y="56" type="curve" smooth="yes"/>
      <point x="352" y="56"/>
      <point x="438" y="142"/>
      <point x="438" y="262" type="curve" smooth="yes"/>
      <point x="438" y="382"/>
      <point x="352" y="468"/>
      <point x="238" y="468" type="curve" smooth="yes"/>
      <point x="124" y="468"/>
      <point x="38" y="382"/>
      <point x="38" y="262" type="curve" smooth="yes"/>
      <point x="38" y="142"/>
      <point x="124" y="56"/>
    </contour>
  </outline>
</glyph>
<glyph name="five" format="1">
  <advance width="520"/>
  <outline>
    <contour>
      <point x="-8" y="104" type="line"/>
      <point x="54" y="18"/>
      <point x="132" y="-12"/>
      <point x="208" y="-12" type="curve" smooth="yes"/>
      <point x="340" y="-12"/>
      <point x="470" y="84"/>
      <point x="470" y="242" type="curve" smooth="yes"/>
      <point x="470" y="352"/>
      <point x="396" y="410"/>
      <point x="300" y="410" type="curve" smooth="yes"/>
      <point x="282" y="410"/>
      <point x="266" y="408"/>
      <point x="248" y="400" type="curve"/>
      <point x="276" y="500" type="line"/>
      <point x="496" y="500" type="line"/>
      <point x="522" y="634" type="line"/>
      <point x="164" y="634" type="line"/>
      <point x="86" y="312" type="line"/>
      <point x="144" y="264" type="line"/>
      <point x="188" y="288"/>
      <point x="202" y="292"/>
      <point x="232" y="292" type="curve" smooth="yes"/>
      <point x="280" y="292"/>
      <point x="308" y="266"/>
      <point x="308" y="216" type="curve" smooth="yes"/>
      <point x="308" y="152"/>
      <point x="262" y="116"/>
      <point x="210" y="116" type="curve" smooth="yes"/>
      <point x="166" y="116"/>
      <point x="126" y="140"/>
      <point x="92" y="186" type="curve"/>
    </contour>
  </outline>
</glyph>
<glyph name="floorleft" format="1">
  <advance width="344"/>
  <outline>
    <contour>
      <point x="148" y="634" type="line"/>
      <point x="12" y="-58" type="line"/>
      <point x="224" y="-58" type="line"/>
      <point x="242" y="26" type="line"/>
      <point x="148" y="26" type="line"/>
      <point x="268" y="634" type="line"/>
    </contour>
  </outline>
</glyph>
<glyph name="four" format="1">
  <advance width="520"/>
  <outline>
    <contour>
      <point x="384" y="0" type="line"/>
      <point x="413" y="146" type="line"/>
      <point x="482" y="146" type="line"/>
      <point x="506" y="268" type="line"/>
      <point x="437" y="268" type="line"/>
      <point x="510" y="634" type="line"/>
      <point x="316" y="634" type="line"/>
      <point x="30" y="258" type="line"/>
      <point x="8" y="146" type="line"/>
      <point x="267" y="146" type="line"/>
      <point x="238" y="0" type="line"/>
    </contour>
    <contour>
      <point x="184" y="268" type="line"/>
      <point x="266" y="380" type="line" smooth="yes"/>
      <point x="292" y="417"/>
      <point x="314" y="460"/>
      <point x="338" y="500" type="curve"/>
      <point x="342" y="500" type="line"/>
      <point x="332" y="452"/>
      <point x="318" y="402"/>
      <point x="308" y="354" type="curve" smooth="yes"/>
      <point x="291" y="268" type="line"/>
    </contour>
  </outline>
</glyph>
<glyph name="fraction" format="1">
  <advance width="98"/>
  <outline>
    <contour>
      <point x="-126" y="-12" type="line"/>
      <point x="344" y="672" type="line"/>
      <point x="254" y="672" type="line"/>
      <point x="-216" y="-12" type="line"/>
    </contour>
  </outline>
</glyph>
<glyph name="g.supa" format="1">
  <advance width="345"/>
  <outline>
    <contour>
      <point x="74" y="470" type="curve" smooth="yes"/>
      <point x="74" y="437"/>
      <point x="89" y="413"/>
      <point x="112" y="393" type="curve"/>
      <point x="112" y="390" type="line"/>
      <point x="84" y="377"/>
      <point x="62" y="352"/>
      <point x="62" y="324" type="curve" smooth="yes"/>
      <point x="62" y="305"/>
      <point x="69" y="289"/>
      <point x="80" y="279" type="curve"/>
      <point x="80" y="276" type="line"/>
      <point x="41" y="260"/>
      <point x="14" y="237"/>
      <point x="14" y="202" type="curve" smooth="yes"/>
      <point x="14" y="132"/>
      <point x="97" y="123"/>
      <point x="146" y="123" type="curve" smooth="yes"/>
      <point x="233" y="123"/>
      <point x="332" y="162"/>
      <point x="332" y="244" type="curve" smooth="yes"/>
      <point x="332" y="286"/>
      <point x="305" y="310"/>
      <point x="202" y="323" type="curve" smooth="yes"/>
      <point x="156" y="329"/>
      <point x="151" y="334"/>
      <point x="151" y="348" type="curve" smooth="yes"/>
      <point x="151" y="356"/>
      <point x="157" y="363"/>
      <point x="163" y="367" type="curve"/>
      <point x="169" y="366"/>
      <point x="182" y="365"/>
      <point x="193" y="365" type="curve" smooth="yes"/>
      <point x="280" y="365"/>
      <point x="341" y="411"/>
      <point x="341" y="485" type="curve" smooth="yes"/>
      <point x="341" y="494"/>
      <point x="341" y="501"/>
      <point x="339" y="510" type="curve"/>
      <point x="382" y="510" type="line"/>
      <point x="397" y="591" type="line"/>
      <point x="269" y="591" type="line"/>
      <point x="254" y="596"/>
      <point x="239" y="599"/>
      <point x="220" y="599" type="curve" smooth="yes"/>
      <point x="141" y="599"/>
      <point x="74" y="545"/>
    </contour>
    <contour>
      <point x="131" y="252" type="curve"/>
      <point x="148" y="248"/>
      <point x="161" y="245"/>
      <point x="170" y="244" type="curve" smooth="yes"/>
      <point x="195" y="241"/>
      <point x="222" y="235"/>
      <point x="222" y="217" type="curve" smooth="yes"/>
      <point x="222" y="199"/>
      <point x="196" y="190"/>
      <point x="157" y="190" type="curve" smooth="yes"/>
      <point x="121" y="190"/>
      <point x="108" y="200"/>
      <point x="108" y="221" type="curve" smooth="yes"/>
      <point x="108" y="234"/>
      <point x="120" y="243"/>
    </contour>
    <contour>
      <point x="218" y="525" type="curve" smooth="yes"/>
      <point x="236" y="525"/>
      <point x="247" y="512"/>
      <point x="247" y="488" type="curve" smooth="yes"/>
      <point x="247" y="460"/>
      <point x="231" y="430"/>
      <point x="204" y="430" type="curve" smooth="yes"/>
      <point x="186" y="430"/>
      <point x="175" y="443"/>
      <point x="175" y="467" type="curve" smooth="yes"/>
      <point x="175" y="495"/>
      <point x="191" y="525"/>
    </contour>
  </outline>
</glyph>
<glyph name="gheup" format="1">
  <advance width="420"/>
  <outline>
    <contour>
      <point x="13" y="0" type="line"/>
      <point x="171" y="0" type="line"/>
      <point x="246" y="374" type="line"/>
      <point x="426" y="374" type="line"/>
      <point x="396" y="498" type="line"/>
      <point x="112" y="498" type="line"/>
    </contour>
    <contour>
      <point x="248" y="374" type="line"/>
      <point x="426" y="374" type="line"/>
      <point x="494" y="670" type="line"/>
      <point x="368" y="670" type="line"/>
      <point x="310" y="498" type="line"/>
      <point x="273" y="498" type="line"/>
    </contour>
  </outline>
</glyph>
<glyph name="gravecmb.cap" format="1">
  <advance width="0"/>
  <outline>
    <contour>
      <point x="74" y="700" type="line"/>
      <point x="194" y="700" type="line"/>
      <point x="142" y="822" type="line"/>
      <point x="-20" y="822" type="line"/>
    </contour>
    <contour>
      <point x="136" y="682" type="move" name="_aboveUC"/>
    </contour>
  </outline>
</glyph>
<glyph name="guilsinglright" format="1">
  <advance width="280"/>
  <outline>
    <contour>
      <point x="144" y="448" type="line"/>
      <point x="82" y="408" type="line"/>
      <point x="158" y="256" type="line"/>
      <point x="28" y="106" type="line"/>
      <point x="76" y="54" type="line"/>
      <point x="228" y="190" type="line"/>
      <point x="248" y="302" type="line"/>
    </contour>
  </outline>
</glyph>
<glyph name="ha.001" format="1">
  <advance width="514"/>
  <outline>
    <contour>
      <point x="198" y="166" type="curve" smooth="yes"/>
      <point x="198" y="52"/>
      <point x="299" y="-12"/>
      <point x="416" y="-12" type="curve"/>
      <point x="452" y="116" type="line"/>
      <point x="362" y="116"/>
      <point x="320" y="144"/>
      <point x="320" y="188" type="curve" smooth="yes"/>
      <point x="320" y="266"/>
      <point x="418" y="335"/>
      <point x="526" y="388" type="curve"/>
      <point x="466" y="512" type="line"/>
      <point x="324" y="440"/>
      <point x="198" y="329"/>
    </contour>
    <contour>
      <point x="334" y="334" type="curve" smooth="yes"/>
      <point x="334" y="448"/>
      <point x="233" y="512"/>
      <point x="116" y="512" type="curve"/>
      <point x="80" y="384" type="line"/>
      <point x="170" y="384"/>
      <point x="212" y="356"/>
      <point x="212" y="312" type="curve" smooth="yes"/>
      <point x="212" y="234"/>
      <point x="114" y="165"/>
      <point x="6" y="112" type="curve"/>
      <point x="66" y="-12" type="line"/>
      <point x="208" y="60"/>
      <point x="334" y="171"/>
    </contour>
    <contour>
      <point x="322" y="522" type="move" name="aboveLC"/>
    </contour>
    <contour>
      <point x="218" y="-22" type="move" name="belowLC"/>
    </contour>
  </outline>
</glyph>
<glyph name="hoicmb" format="1">
  <advance width="0"/>
  <outline>
    <contour>
      <point x="64" y="678" type="line"/>
      <point x="114" y="674"/>
      <point x="134" y="666"/>
      <point x="134" y="650" type="curve" smooth="yes"/>
      <point x="134" y="630"/>
      <point x="114" y="624"/>
      <point x="88" y="620" type="curve"/>
      <point x="92" y="556" type="line"/>
      <point x="180" y="564"/>
      <point x="252" y="598"/>
      <point x="252" y="676" type="curve" smooth="yes"/>
      <point x="252" y="722"/>
      <point x="212" y="754"/>
      <point x="96" y="756" type="curve"/>
    </contour>
    <contour>
      <point x="114" y="522" type="move" name="_aboveLC"/>
    </contour>
  </outline>
</glyph>
<glyph name="hoicmb.cap" format="1">
  <advance width="0"/>
  <outline>
    <contour>
      <point x="60" y="808" type="line"/>
      <point x="110" y="806"/>
      <point x="128" y="796"/>
      <point x="128" y="780" type="curve" smooth="yes"/>
      <point x="128" y="760"/>
      <point x="108" y="754"/>
      <point x="82" y="750" type="curve"/>
      <point x="86" y="688" type="line"/>
      <point x="174" y="696"/>
      <point x="248" y="730"/>
      <point x="248" y="808" type="curve" smooth="yes"/>
      <point x="248" y="852"/>
      <point x="208" y="884"/>
      <point x="94" y="888" type="curve"/>
    </contour>
    <contour>
      <point x="136" y="682" type="move" name="_aboveUC"/>
    </contour>
  </outline>
</glyph>
<glyph name="i.trk" format="1">
  <advance width="276"/>
  <outline>
    <contour>
      <point x="8" y="0" type="line"/>
      <point x="168" y="0" type="line"/>
      <point x="268" y="500" type="line"/>
      <point x="108" y="500" type="line"/>
    </contour>
    <contour>
      <point x="214" y="564" type="curve" smooth="yes"/>
      <point x="268" y="564"/>
      <point x="310" y="602"/>
      <point x="310" y="654" type="curve" smooth="yes"/>
      <point x="310" y="702"/>
      <point x="268" y="728"/>
      <point x="226" y="728" type="curve" smooth="yes"/>
      <point x="172" y="728"/>
      <point x="130" y="686"/>
      <point x="130" y="638" type="curve" smooth="yes"/>
      <point x="130" y="588"/>
      <point x="172" y="564"/>
    </contour>
  </outline>
</glyph>
<glyph name="icyr" format="1">
  <advance width="552"/>
  <outline>
    <component base="u"/>
    <contour>
      <point x="332" y="522" type="move" name="aboveLC"/>
    </contour>
  </outline>
</glyph>
<glyph name="ie" format="1">
  <advance width="502"/>
  <outline>
    <component base="e"/>
    <contour>
      <point x="326" y="522" type="move" name="aboveLC"/>
    </contour>
    <contour>
      <point x="224" y="-22" type="move" name="belowLC"/>
    </contour>
    <contour>
      <point x="290" y="0" type="move" name="ogonekLC"/>
    </contour>
  </outline>
</glyph>
<glyph name="iukran" format="1">
  <advance width="276"/>
  <outline>
    <component base="i"/>
    <contour>
      <point x="88" y="0" type="move" name="ogonekLC"/>
    </contour>
  </outline>
</glyph>
<glyph name="izhitsa" format="1">
  <advance width="525"/>
  <outline>
    <contour>
      <point x="232" y="118" type="line"/>
      <point x="232" y="171"/>
      <point x="232" y="222"/>
      <point x="230" y="272" type="curve" smooth="yes"/>
      <point x="220" y="500" type="line"/>
      <point x="60" y="500" type="line"/>
      <point x="120" y="0" type="line"/>
      <point x="308" y="0" type="line"/>
      <point x="447" y="309" type="line" smooth="yes"/>
      <point x="464" y="346"/>
      <point x="485" y="371"/>
      <point x="514" y="371" type="curve" smooth="yes"/>
      <point x="525" y="371"/>
      <point x="534" y="368"/>
      <point x="541" y="365" type="curve"/>
      <point x="593" y="500" type="line"/>
      <point x="574" y="508"/>
      <point x="558" y="512"/>
      <point x="522" y="512" type="curve" smooth="yes"/>
      <point x="428" y="512"/>
      <point x="370" y="452"/>
      <point x="319" y="329" type="curve" smooth="yes"/>
      <point x="295" y="271" type="line" smooth="yes"/>
      <point x="274" y="221"/>
      <point x="255" y="170"/>
      <point x="236" y="118" type="curve"/>
    </contour>
  </outline>
</glyph>
<glyph name="k" format="1">
  <advance width="544"/>
  <outline>
    <contour>
      <point x="8" y="0" type="line"/>
      <point x="168" y="0" type="line"/>
      <point x="192" y="118" type="line"/>
      <point x="260" y="186" type="line"/>
      <point x="328" y="0" type="line"/>
      <point x="488" y="0" type="line"/>
      <point x="370" y="278" type="line"/>
      <point x="576" y="500" type="line"/>
      <point x="400" y="500" type="line"/>
      <point x="236" y="320" type="line"/>
      <point x="232" y="320" type="line"/>
      <point x="308" y="696" type="line"/>
      <point x="148" y="696" type="line"/>
    </contour>
    <contour>
      <point x="238" y="730" type="move" name="aboveLC"/>
    </contour>
    <contour>
      <point x="246" y="-22" type="move" name="belowLC"/>
    </contour>
  </outline>
</glyph>
<glyph name="k.sups" format="1">
  <advance width="367"/>
  <outline>
    <contour>
      <point x="38" y="260" type="line"/>
      <point x="150" y="260" type="line"/>
      <point x="166" y="340" type="line"/>
      <point x="208" y="380" type="line"/>
      <point x="253" y="260" type="line"/>
      <point x="364" y="260" type="line"/>
      <point x="283" y="443" type="line"/>
      <point x="422" y="592" type="line"/>
      <point x="300" y="592" type="line"/>
      <point x="196" y="474" type="line"/>
      <point x="192" y="474" type="line"/>
      <point x="242" y="720" type="line"/>
      <point x="130" y="720" type="line"/>
    </contour>
  </outline>
</glyph>
<glyph name="ka" format="1">
  <advance width="536"/>
  <outline>
    <contour>
      <point x="8" y="0" type="line"/>
      <point x="168" y="0" type="line"/>
      <point x="206" y="188" type="line"/>
      <point x="244" y="188" type="line"/>
      <point x="317" y="0" type="line"/>
      <point x="482" y="0" type="line"/>
      <point x="370" y="260" type="line"/>
      <point x="572" y="500" type="line"/>
      <point x="396" y="500" type="line"/>
      <point x="258" y="322" type="line"/>
      <point x="232" y="322" type="line"/>
      <point x="268" y="500" type="line"/>
      <point x="108" y="500" type="line"/>
    </contour>
    <contour>
      <point x="342" y="522" type="move" name="aboveLC"/>
    </contour>
  </outline>
</glyph>
<glyph name="l.alt" format="1">
  <advance width="276"/>
  <outline>
    <contour>
      <point x="8" y="0" type="line"/>
      <point x="168" y="0" type="line"/>
      <point x="308" y="696" type="line"/>
      <point x="148" y="696" type="line"/>
    </contour>
    <contour>
      <point x="240" y="730" type="move" name="aboveLC"/>
    </contour>
    <contour>
      <point x="90" y="-22" type="move" name="belowLC"/>
    </contour>
  </outline>
</glyph>
<glyph name="l.sups" format="1">
  <advance width="186"/>
  <outline>
    <contour>
      <point x="61" y="373" type="line" smooth="yes"/>
      <point x="57" y="354"/>
      <point x="56" y="341"/>
      <point x="56" y="327" type="curve" smooth="yes"/>
      <point x="56" y="281"/>
      <point x="78" y="252"/>
      <point x="135" y="252" type="curve" smooth="yes"/>
      <point x="159" y="252"/>
      <point x="179" y="256"/>
      <point x="191" y="260" type="curve"/>
      <point x="193" y="341" type="line"/>
      <point x="188" y="339"/>
      <point x="187" y="339"/>
      <point x="183" y="339" type="curve" smooth="yes"/>
      <point x="176" y="339"/>
      <point x="169" y="341"/>
      <point x="169" y="355" type="curve" smooth="yes"/>
      <point x="169" y="358"/>
      <point x="170" y="364"/>
      <point x="171" y="367" type="curve" smooth="yes"/>
      <point x="242" y="720" type="line"/>
      <point x="130" y="720" type="line"/>
    </contour>
  </outline>
</glyph>
<glyph name="litre" format="1">
  <advance width="472"/>
  <outline>
    <contour>
      <point x="36" y="102" type="line"/>
      <point x="436" y="302"/>
      <point x="524" y="437"/>
      <point x="524" y="572" type="curve" smooth="yes"/>
      <point x="524" y="656"/>
      <point x="474" y="708"/>
      <point x="390" y="708" type="curve" smooth="yes"/>
      <point x="280" y="708"/>
      <point x="182" y="630"/>
      <point x="148" y="460" type="curve" smooth="yes"/>
      <point x="92" y="190" type="line" smooth="yes"/>
      <point x="66" y="56"/>
      <point x="146" y="-12"/>
      <point x="254" y="-12" type="curve" smooth="yes"/>
      <point x="324" y="-12"/>
      <point x="388" y="26"/>
      <point x="444" y="66" type="curve"/>
      <point x="404" y="164" type="line"/>
      <point x="378" y="144"/>
      <point x="342" y="120"/>
      <point x="304" y="120" type="curve" smooth="yes"/>
      <point x="266" y="120"/>
      <point x="240" y="144"/>
      <point x="252" y="206" type="curve" smooth="yes"/>
      <point x="310" y="480" type="line" smooth="yes"/>
      <point x="326" y="564"/>
      <point x="352" y="592"/>
      <point x="374" y="592" type="curve" smooth="yes"/>
      <point x="388" y="592"/>
      <point x="394" y="578"/>
      <point x="394" y="556" type="curve" smooth="yes"/>
      <point x="394" y="457"/>
      <point x="294" y="342"/>
      <point x="-2" y="200" type="curve"/>
    </contour>
  </outline>
</glyph>
<glyph name="lownumeralsign" format="1">
  <advance width="300"/>
  <outline>
    <contour>
      <point x="239" y="308" type="line"/>
      <point x="136" y="308" type="line"/>
      <point x="53" y="132" type="line"/>
      <point x="2" y="0" type="line"/>
      <point x="160" y="0" type="line"/>
    </contour>
  </outline>
</glyph>
<glyph name="macronacute" format="1">
  <advance width="0"/>
  <outline>
    <contour>
      <point x="24" y="740" type="line"/>
      <point x="132" y="740" type="line"/>
      <point x="272" y="852" type="line"/>
      <point x="132" y="852" type="line"/>
    </contour>
    <contour>
      <point x="-68" y="590" type="line"/>
      <point x="206" y="590" type="line"/>
      <point x="226" y="690" type="line"/>
      <point x="-48" y="690" type="line"/>
    </contour>
    <contour>
      <point x="66" y="522" type="move" name="_aboveLC"/>
    </contour>
  </outline>
</glyph>
<glyph name="macronacute.cap" format="1">
  <advance width="0"/>
  <outline>
    <contour>
      <point x="78" y="856" type="line"/>
      <point x="204" y="856" type="line"/>
      <point x="346" y="978" type="line"/>
      <point x="178" y="978" type="line"/>
    </contour>
    <contour>
      <point x="-16" y="716" type="line"/>
      <point x="264" y="716" type="line"/>
      <point x="284" y="818" type="line"/>
      <point x="4" y="818" type="line"/>
    </contour>
    <contour>
      <point x="136" y="682" type="move" name="_aboveUC"/>
    </contour>
  </outline>
</glyph>
<glyph name="macronbelowcmb" format="1">
  <advance width="0"/>
  <outline>
    <contour>
      <point x="-182" y="-190" type="line"/>
      <point x="92" y="-190" type="line"/>
      <point x="112" y="-90" type="line"/>
      <point x="-162" y="-90" type="line"/>
    </contour>
    <contour>
      <point x="-6" y="-30" type="move" name="_belowLC"/>
    </contour>
  </outline>
</glyph>
<glyph name="macroncmb" format="1">
  <advance width="0"/>
  <outline>
    <contour>
      <point x="-22" y="590" type="line"/>
      <point x="252" y="590" type="line"/>
      <point x="272" y="690" type="line"/>
      <point x="-2" y="690" type="line"/>
    </contour>
    <contour>
      <point x="114" y="522" type="move" name="_aboveLC"/>
    </contour>
  </outline>
</glyph>
<glyph name="mturned" format="1">
  <advance width="834"/>
  <outline>
    <contour>
      <point x="824" y="500" type="line"/>
      <point x="664" y="500" type="line"/>
      <point x="602" y="180" type="line"/>
      <point x="566" y="142"/>
      <point x="540" y="124"/>
      <point x="518" y="124" type="curve" smooth="yes"/>
      <point x="494" y="124"/>
      <point x="478" y="138"/>
      <point x="478" y="166" type="curve" smooth="yes"/>
      <point x="478" y="178"/>
      <point x="482" y="192"/>
      <point x="486" y="210" type="curve" smooth="yes"/>
      <point x="544" y="500" type="line"/>
      <point x="384" y="500" type="line"/>
      <point x="320" y="180" type="line"/>
      <point x="284" y="142"/>
      <point x="258" y="124"/>
      <point x="238" y="124" type="curve" smooth="yes"/>
      <point x="212" y="124"/>
      <point x="196" y="138"/>
      <point x="196" y="166" type="curve" smooth="yes"/>
      <point x="196" y="178"/>
      <point x="200" y="192"/>
      <point x="204" y="210" type="curve" smooth="yes"/>
      <point x="262" y="500" type="line"/>
      <point x="102" y="500" type="line"/>
      <point x="40" y="190" type="line" smooth="yes"/>
      <point x="35" y="166"/>
      <point x="32" y="140"/>
      <point x="32" y="118" type="curve" smooth="yes"/>
      <point x="32" y="32"/>
      <point x="68" y="-12"/>
      <point x="150" y="-12" type="curve" smooth="yes"/>
      <point x="208" y="-12"/>
      <point x="264" y="24"/>
      <point x="316" y="72" type="curve"/>
      <point x="332" y="20"/>
      <point x="360" y="-12"/>
      <point x="432" y="-12" type="curve" smooth="yes"/>
      <point x="490" y="-12"/>
      <point x="546" y="24"/>
      <point x="592" y="64" type="curve"/>
      <point x="596" y="64" type="line"/>
      <point x="596" y="0" type="line"/>
      <point x="726" y="0" type="line"/>
    </contour>
    <contour>
      <point x="527" y="522" type="move" name="aboveLC"/>
    </contour>
    <contour>
      <point x="402" y="-22" type="move" name="belowLC"/>
    </contour>
  </outline>
</glyph>
<glyph name="numeralsign" format="1">
  <advance width="301"/>
  <outline>
    <contour>
      <point x="109" y="377" type="line"/>
      <point x="212" y="377" type="line"/>
      <point x="295" y="553" type="line"/>
      <point x="346" y="685" type="line"/>
      <point x="188" y="685" type="line"/>
    </contour>
  </outline>
</glyph>
<glyph name="numero" format="1">
  <advance width="948"/>
  <outline>
    <contour>
      <point x="649" y="405" type="curve" smooth="yes"/>
      <point x="649" y="322"/>
      <point x="707" y="273"/>
      <point x="779" y="273" type="curve" smooth="yes"/>
      <point x="873" y="273"/>
      <point x="973" y="347"/>
      <point x="973" y="466" type="curve" smooth="yes"/>
      <point x="973" y="550"/>
      <point x="916" y="599"/>
      <point x="844" y="599" type="curve" smooth="yes"/>
      <point x="750" y="599"/>
      <point x="649" y="525"/>
    </contour>
    <contour>
      <point x="796" y="360" type="curve" smooth="yes"/>
      <point x="772" y="360"/>
      <point x="762" y="379"/>
      <point x="762" y="408" type="curve" smooth="yes"/>
      <point x="762" y="442"/>
      <point x="772" y="512"/>
      <point x="827" y="512" type="curve" smooth="yes"/>
      <point x="851" y="512"/>
      <point x="861" y="493"/>
      <point x="861" y="463" type="curve" smooth="yes"/>
      <point x="861" y="426"/>
      <point x="850" y="360"/>
    </contour>
    <contour>
      <point x="621" y="125" type="line"/>
      <point x="877" y="125" type="line"/>
      <point x="894" y="207" type="line"/>
      <point x="638" y="207" type="line"/>
    </contour>
    <contour>
      <point x="492" y="0" type="line"/>
      <point x="587" y="475" type="line" smooth="yes"/>
      <point x="594" y="510"/>
      <point x="606" y="519"/>
      <point x="636" y="519" type="curve"/>
      <point x="649" y="640" type="line"/>
      <point x="635" y="644"/>
      <point x="629" y="646"/>
      <point x="606" y="646" type="curve" smooth="yes"/>
      <point x="519" y="646"/>
      <point x="472" y="597"/>
      <point x="454" y="509" type="curve" smooth="yes"/>
      <point x="437" y="424" type="line" smooth="yes"/>
      <point x="425" y="364"/>
      <point x="418" y="290"/>
      <point x="408" y="169" type="curve"/>
      <point x="405" y="169" type="line"/>
      <point x="398" y="230" type="line"/>
      <point x="380" y="366"/>
      <point x="357" y="499"/>
      <point x="334" y="634" type="curve"/>
      <point x="162" y="634" type="line"/>
      <point x="67" y="159" type="line" smooth="yes"/>
      <point x="59" y="123"/>
      <point x="48" y="115"/>
      <point x="18" y="115" type="curve"/>
      <point x="5" y="-6" type="line"/>
      <point x="19" y="-10"/>
      <point x="25" y="-12"/>
      <point x="48" y="-12" type="curve" smooth="yes"/>
      <point x="135" y="-12"/>
      <point x="182" y="36"/>
      <point x="200" y="125" type="curve" smooth="yes"/>
      <point x="217" y="210" type="line" smooth="yes"/>
      <point x="229" y="271"/>
      <point x="236" y="345"/>
      <point x="246" y="465" type="curve"/>
      <point x="249" y="465" type="line"/>
      <point x="256" y="405" type="line" smooth="yes"/>
      <point x="271" y="268"/>
      <point x="297" y="134"/>
      <point x="319" y="0" type="curve"/>
    </contour>
  </outline>
</glyph>
<glyph name="o" format="1">
  <advance width="540"/>
  <outline>
    <contour>
      <point x="228" y="-12" type="curve" smooth="yes"/>
      <point x="366" y="-12"/>
      <point x="506" y="112"/>
      <point x="506" y="306" type="curve" smooth="yes"/>
      <point x="506" y="430"/>
      <point x="428" y="512"/>
      <point x="308" y="512" type="curve" smooth="yes"/>
      <point x="170" y="512"/>
      <point x="30" y="388"/>
      <point x="30" y="194" type="curve" smooth="yes"/>
      <point x="30" y="70"/>
      <point x="108" y="-12"/>
    </contour>
    <contour>
      <point x="292" y="384" type="curve" smooth="yes"/>
      <point x="328" y="384"/>
      <point x="344" y="354"/>
      <point x="344" y="304" type="curve" smooth="yes"/>
      <point x="344" y="196"/>
      <point x="302" y="116"/>
      <point x="244" y="116" type="curve" smooth="yes"/>
      <point x="208" y="116"/>
      <point x="192" y="146"/>
      <point x="192" y="196" type="curve" smooth="yes"/>
      <point x="192" y="304"/>
      <point x="234" y="384"/>
    </contour>
    <contour>
      <point x="334" y="522" type="move" name="aboveLC"/>
    </contour>
    <contour>
      <point x="202" y="-22" type="move" name="belowLC"/>
    </contour>
    <contour>
      <point x="420" y="500" type="move" name="hornLC"/>
    </contour>
    <contour>
      <point x="216" y="0" type="move" name="ogonekLC"/>
    </contour>
  </outline>
</glyph>
<glyph name="ocyr" format="1">
  <advance width="540"/>
  <outline>
    <component base="o"/>
    <contour>
      <point x="334" y="522" type="move" name="aboveLC"/>
    </contour>
    <contour>
      <point x="202" y="-22" type="move" name="belowLC"/>
    </contour>
    <contour>
      <point x="420" y="500" type="move" name="hornLC"/>
    </contour>
    <contour>
      <point x="216" y="0" type="move" name="ogonekLC"/>
    </contour>
  </outline>
</glyph>
<glyph name="ogonek" format="1">
  <advance width="540"/>
  <outline>
    <component base="ogonekcmb" xOffset="220"/>
    <contour>
      <point x="220" y="0" type="move" name="_ogonekLC"/>
    </contour>
  </outline>
</glyph>
<glyph name="ohorntilde" format="1">
  <advance width="546"/>
  <outline>
    <contour>
      <point x="466" y="598" type="line"/>
      <point x="471" y="586"/>
      <point x="474" y="572"/>
      <point x="474" y="560" type="curve" smooth="yes"/>
      <point x="474" y="528"/>
      <point x="448" y="498"/>
      <point x="404" y="490" type="curve"/>
      <point x="466" y="435" type="line"/>
      <point x="559" y="456"/>
      <point x="598" y="508"/>
      <point x="598" y="568" type="curve" smooth="yes"/>
      <point x="598" y="590"/>
      <point x="594" y="612"/>
      <point x="584" y="634" type="curve"/>
    </contour>
    <component base="o"/>
    <component base="tildecmb" xOffset="200"/>
  </outline>
</glyph>
<glyph name="omicron" format="1">
  <advance width="540"/>
  <outline>
    <component base="o"/>
    <contour>
      <point x="334" y="522" type="move" name="aboveLC"/>
    </contour>
    <contour>
      <point x="202" y="-22" type="move" name="belowLC"/>
    </contour>
  </outline>
</glyph>
<glyph name="oogonek" format="1">
  <advance width="540"/>
  <outline>
    <contour>
      <point x="96" y="-136" type="curve" smooth="yes"/>
      <point x="96" y="-186"/>
      <point x="134" y="-212"/>
      <point x="186" y="-212" type="curve" smooth="yes"/>
      <point x="222" y="-212"/>
      <point x="270" y="-194"/>
      <point x="300" y="-172" type="curve"/>
      <point x="274" y="-108" type="line"/>
      <point x="264" y="-114"/>
      <point x="254" y="-118"/>
      <point x="244" y="-118" type="curve" smooth="yes"/>
      <point x="226" y="-118"/>
      <point x="210" y="-108"/>
      <point x="210" y="-90" type="curve" smooth="yes"/>
      <point x="210" y="-65"/>
      <point x="234" y="-28"/>
      <point x="298" y="-2" type="curve" smooth="yes"/>
      <point x="412" y="44"/>
      <point x="506" y="140"/>
      <point x="506" y="306" type="curve" smooth="yes"/>
      <point x="506" y="430"/>
      <point x="428" y="512"/>
      <point x="308" y="512" type="curve" smooth="yes"/>
      <point x="170" y="512"/>
      <point x="30" y="388"/>
      <point x="30" y="194" type="curve" smooth="yes"/>
      <point x="30" y="83"/>
      <point x="88" y="14"/>
      <point x="178" y="-6" type="curve"/>
      <point x="160" y="-18"/>
      <point x="96" y="-70"/>
    </contour>
    <contour>
      <point x="292" y="384" type="curve" smooth="yes"/>
      <point x="328" y="384"/>
      <point x="344" y="354"/>
      <point x="344" y="304" type="curve" smooth="yes"/>
      <point x="344" y="196"/>
      <point x="302" y="116"/>
      <point x="244" y="116" type="curve" smooth="yes"/>
      <point x="208" y="116"/>
      <point x="192" y="146"/>
      <point x="192" y="196" type="curve" smooth="yes"/>
      <point x="192" y="304"/>
      <point x="234" y="384"/>
    </contour>
    <contour>
      <point x="334" y="522" type="move" name="aboveLC"/>
    </contour>
  </outline>
</glyph>
<glyph name="pe" format="1">
  <advance width="562"/>
  <outline>
    <component base="n"/>
    <contour>
      <point x="366" y="522" type="move" name="aboveLC"/>
    </contour>
    <contour>
      <point x="242" y="-22" type="move" name="belowLC"/>
    </contour>
  </outline>
</glyph>
<glyph name="phi.001" format="1">
  <advance width="718"/>
  <outline>
    <contour>
      <point x="428" y="272" type="curve" smooth="yes"/>
      <point x="443" y="346"/>
      <point x="464" y="384"/>
      <point x="494" y="384" type="curve" smooth="yes"/>
      <point x="515" y="384"/>
      <point x="528" y="361"/>
      <point x="528" y="314" type="curve" smooth="yes"/>
      <point x="528" y="180"/>
      <point x="466" y="112"/>
      <point x="394" y="110" type="curve"/>
      <point x="360" y="-8" type="line"/>
      <point x="530" y="-6"/>
      <point x="690" y="98"/>
      <point x="690" y="320" type="curve" smooth="yes"/>
      <point x="690" y="436"/>
      <point x="616" y="512"/>
      <point x="514" y="512" type="curve" smooth="yes"/>
      <point x="407" y="512"/>
      <point x="320" y="442"/>
      <point x="284" y="255" type="curve" smooth="yes"/>
      <point x="199" y="-176" type="line"/>
      <point x="352" y="-176" type="line"/>
      <point x="366" y="-68"/>
      <point x="399" y="124"/>
    </contour>
    <contour>
      <point x="282" y="110" type="line"/>
      <point x="216" y="112"/>
      <point x="184" y="157"/>
      <point x="184" y="228" type="curve" smooth="yes"/>
      <point x="184" y="298"/>
      <point x="216" y="354"/>
      <point x="293" y="427" type="curve"/>
      <point x="181" y="519" type="line"/>
      <point x="96" y="439"/>
      <point x="24" y="327"/>
      <point x="24" y="222" type="curve" smooth="yes"/>
      <point x="24" y="66"/>
      <point x="138" y="-6"/>
      <point x="276" y="-8" type="curve"/>
    </contour>
  </outline>
</glyph>
<glyph name="product" format="1">
  <advance width="694"/>
  <outline>
    <contour>
      <point x="0" y="-120" type="line"/>
      <point x="160" y="-120" type="line"/>
      <point x="282" y="494" type="line"/>
      <point x="508" y="494" type="line"/>
      <point x="386" y="-120" type="line"/>
      <point x="546" y="-120" type="line"/>
      <point x="694" y="634" type="line"/>
      <point x="150" y="634" type="line"/>
    </contour>
  </outline>
</glyph>
<glyph name="quoteright" format="1">
  <advance width="310"/>
  <outline>
    <contour>
      <point x="238" y="624" type="line"/>
      <point x="228" y="536" type="line"/>
      <point x="228" y="506"/>
      <point x="185" y="443"/>
      <point x="106" y="416" type="curve"/>
      <point x="130" y="348" type="line"/>
      <point x="230" y="376"/>
      <point x="318" y="458"/>
      <point x="318" y="588" type="curve" smooth="yes"/>
      <point x="318" y="656"/>
      <point x="286" y="696"/>
      <point x="236" y="696" type="curve" smooth="yes"/>
      <point x="178" y="696"/>
      <point x="142" y="652"/>
      <point x="142" y="604" type="curve" smooth="yes"/>
      <point x="142" y="560"/>
      <point x="176" y="534"/>
      <point x="222" y="534" type="curve" smooth="yes"/>
      <point x="238" y="534"/>
      <point x="254" y="542"/>
      <point x="268" y="552" type="curve"/>
    </contour>
  </outline>
</glyph>
<glyph name="rho" format="1">
  <advance width="551"/>
  <outline>
    <contour>
      <point x="166" y="41" type="curve"/>
      <point x="195" y="7"/>
      <point x="239" y="-12"/>
      <point x="288" y="-12" type="curve" smooth="yes"/>
      <point x="399" y="-12"/>
      <point x="530" y="108"/>
      <point x="530" y="297" type="curve" smooth="yes"/>
      <point x="530" y="430"/>
      <point x="454" y="512"/>
      <point x="324" y="512" type="curve" smooth="yes"/>
      <point x="199" y="512"/>
      <point x="94" y="436"/>
      <point x="58" y="245" type="curve" smooth="yes"/>
      <point x="-26" y="-176" type="line"/>
      <point x="136" y="-176" type="line"/>
      <point x="142" y="-106"/>
      <point x="152" y="-34"/>
    </contour>
    <contour>
      <point x="188" y="148" type="curve"/>
      <point x="210" y="262" type="line" smooth="yes"/>
      <point x="225" y="339"/>
      <point x="261" y="384"/>
      <point x="303" y="384" type="curve" smooth="yes"/>
      <point x="346" y="384"/>
      <point x="368" y="355"/>
      <point x="368" y="302" type="curve" smooth="yes"/>
      <point x="368" y="181"/>
      <point x="314" y="116"/>
      <point x="256" y="116" type="curve" smooth="yes"/>
      <point x="232" y="116"/>
      <point x="208" y="126"/>
    </contour>
    <contour>
      <point x="332" y="522" type="move" name="aboveLC"/>
    </contour>
  </outline>
</glyph>
<glyph name="ringcmb.cap" format="1">
  <advance width="0"/>
  <outline>
    <contour>
      <point x="134" y="696" type="curve" smooth="yes"/>
      <point x="200" y="696"/>
      <point x="254" y="746"/>
      <point x="254" y="810" type="curve" smooth="yes"/>
      <point x="254" y="870"/>
      <point x="202" y="898"/>
      <point x="146" y="898" type="curve" smooth="yes"/>
      <point x="80" y="898"/>
      <point x="26" y="846"/>
      <point x="26" y="784" type="curve" smooth="yes"/>
      <point x="26" y="722"/>
      <point x="76" y="696"/>
    </contour>
    <contour>
      <point x="144" y="838" type="curve" smooth="yes"/>
      <point x="166" y="838"/>
      <point x="178" y="822"/>
      <point x="178" y="804" type="curve" smooth="yes"/>
      <point x="178" y="778"/>
      <point x="158" y="756"/>
      <point x="136" y="756" type="curve" smooth="yes"/>
      <point x="114" y="756"/>
      <point x="102" y="772"/>
      <point x="102" y="790" type="curve" smooth="yes"/>
      <point x="102" y="814"/>
      <point x="120" y="838"/>
    </contour>
    <contour>
      <point x="136" y="682" type="move" name="_aboveUC"/>
    </contour>
  </outline>
</glyph>
<glyph name="s.sups" format="1">
  <advance width="290"/>
  <outline>
    <contour>
      <point x="21" y="309" type="line"/>
      <point x="52" y="274"/>
      <point x="104" y="252"/>
      <point x="149" y="252" type="curve" smooth="yes"/>
      <point x="238" y="252"/>
      <point x="293" y="297"/>
      <point x="293" y="363" type="curve" smooth="yes"/>
      <point x="293" y="413"/>
      <point x="259" y="439"/>
      <point x="228" y="456" type="curve" smooth="yes"/>
      <point x="203" y="470"/>
      <point x="176" y="480"/>
      <point x="176" y="497" type="curve" smooth="yes"/>
      <point x="176" y="510"/>
      <point x="185" y="522"/>
      <point x="205" y="522" type="curve" smooth="yes"/>
      <point x="232" y="522"/>
      <point x="256" y="504"/>
      <point x="277" y="486" type="curve"/>
      <point x="327" y="551" type="line"/>
      <point x="296" y="576"/>
      <point x="255" y="600"/>
      <point x="205" y="600" type="curve" smooth="yes"/>
      <point x="129" y="600"/>
      <point x="72" y="551"/>
      <point x="72" y="487" type="curve" smooth="yes"/>
      <point x="72" y="443"/>
      <point x="103" y="415"/>
      <point x="135" y="394" type="curve" smooth="yes"/>
      <point x="170" y="371"/>
      <point x="190" y="368"/>
      <point x="190" y="354" type="curve" smooth="yes"/>
      <point x="190" y="339"/>
      <point x="181" y="330"/>
      <point x="156" y="330" type="curve" smooth="yes"/>
      <point x="132" y="330"/>
      <point x="108" y="344"/>
      <point x="82" y="368" type="curve"/>
    </contour>
  </outline>
</glyph>
<glyph name="sampi" format="1">
  <advance width="524"/>
  <outline>
    <contour>
      <point x="267" y="-165" type="curve"/>
      <point x="417" y="-199" type="line"/>
      <point x="451" y="-107"/>
      <point x="477" y="-29"/>
      <point x="486" y="76" type="curve" smooth="yes"/>
      <point x="510" y="319"/>
      <point x="440" y="545"/>
      <point x="274" y="703" type="curve"/>
      <point x="149" y="598" type="line"/>
      <point x="295" y="463"/>
      <point x="349" y="280"/>
      <point x="331" y="81" type="curve" smooth="yes"/>
      <point x="323" y="2"/>
      <point x="304" y="-68"/>
    </contour>
    <contour>
      <point x="401" y="92" type="curve"/>
      <point x="437" y="238" type="line"/>
      <point x="77" y="119" type="line"/>
      <point x="115" y="-17" type="line"/>
      <point x="218" y="27"/>
      <point x="307" y="62"/>
    </contour>
    <contour>
      <point x="350" y="305" type="curve"/>
      <point x="386" y="451" type="line"/>
      <point x="26" y="333" type="line"/>
      <point x="64" y="196" type="line"/>
      <point x="168" y="240"/>
      <point x="257" y="275"/>
    </contour>
  </outline>
</glyph>
<glyph name="schwa" format="1">
  <advance width="498"/>
  <outline>
    <contour>
      <point x="468" y="296" type="curve" smooth="yes"/>
      <point x="468" y="440"/>
      <point x="388" y="512"/>
      <point x="274" y="512" type="curve" smooth="yes"/>
      <point x="212" y="512"/>
      <point x="156" y="496"/>
      <point x="98" y="466" type="curve"/>
      <point x="144" y="364" type="line"/>
      <point x="174" y="380"/>
      <point x="210" y="392"/>
      <point x="234" y="392" type="curve" smooth="yes"/>
      <point x="280" y="392"/>
      <point x="316" y="368"/>
      <point x="318" y="294" type="curve"/>
      <point x="48" y="294" type="line"/>
      <point x="34" y="270"/>
      <point x="20" y="220"/>
      <point x="20" y="178" type="curve" smooth="yes"/>
      <point x="20" y="74"/>
      <point x="64" y="-12"/>
      <point x="186" y="-12" type="curve" smooth="yes"/>
      <point x="320" y="-12"/>
      <point x="468" y="112"/>
    </contour>
    <contour>
      <point x="306" y="198" type="line"/>
      <point x="284" y="134"/>
      <point x="244" y="110"/>
      <point x="206" y="110" type="curve" smooth="yes"/>
      <point x="164" y="110"/>
      <point x="150" y="136"/>
      <point x="150" y="170" type="curve" smooth="yes"/>
      <point x="150" y="180"/>
      <point x="152" y="188"/>
      <point x="154" y="198" type="curve"/>
    </contour>
  </outline>
</glyph>
<glyph name="schwa.sups" format="1">
  <advance width="334"/>
  <outline>
    <contour>
      <point x="352" y="455" type="curve" smooth="yes"/>
      <point x="352" y="551"/>
      <point x="299" y="599"/>
      <point x="222" y="599" type="curve" smooth="yes"/>
      <point x="183" y="599"/>
      <point x="143" y="588"/>
      <point x="102" y="568" type="curve"/>
      <point x="134" y="499" type="line"/>
      <point x="158" y="510"/>
      <point x="171" y="517"/>
      <point x="190" y="517" type="curve" smooth="yes"/>
      <point x="223" y="517"/>
      <point x="246" y="503"/>
      <point x="248" y="455" type="curve"/>
      <point x="69" y="455" type="line"/>
      <point x="64" y="446"/>
      <point x="51" y="412"/>
      <point x="51" y="378" type="curve" smooth="yes"/>
      <point x="51" y="309"/>
      <point x="81" y="252"/>
      <point x="163" y="252" type="curve" smooth="yes"/>
      <point x="253" y="252"/>
      <point x="352" y="334"/>
    </contour>
    <contour>
      <point x="240" y="390" type="line"/>
      <point x="226" y="349"/>
      <point x="201" y="335"/>
      <point x="176" y="335" type="curve" smooth="yes"/>
      <point x="149" y="335"/>
      <point x="140" y="351"/>
      <point x="140" y="373" type="curve" smooth="yes"/>
      <point x="140" y="380"/>
      <point x="142" y="381"/>
      <point x="143" y="390" type="curve"/>
    </contour>
  </outline>
</glyph>
<glyph name="servicemark" format="1">
  <advance width="658"/>
  <outline>
    <contour>
      <point x="30" y="406" type="line"/>
      <point x="68" y="360"/>
      <point x="104" y="348"/>
      <point x="152" y="348" type="curve" smooth="yes"/>
      <point x="230" y="348"/>
      <point x="290" y="406"/>
      <point x="290" y="464" type="curve" smooth="yes"/>
      <point x="290" y="506"/>
      <point x="268" y="532"/>
      <point x="240" y="546" type="curve" smooth="yes"/>
      <point x="208" y="562" type="line" smooth="yes"/>
      <point x="190" y="570"/>
      <point x="178" y="578"/>
      <point x="178" y="588" type="curve" smooth="yes"/>
      <point x="178" y="598"/>
      <point x="188" y="610"/>
      <point x="210" y="610" type="curve" smooth="yes"/>
      <point x="228" y="610"/>
      <point x="248" y="596"/>
      <point x="264" y="580" type="curve"/>
      <point x="322" y="640" type="line"/>
      <point x="296" y="664"/>
      <point x="264" y="686"/>
      <point x="218" y="686" type="curve" smooth="yes"/>
      <point x="142" y="686"/>
      <point x="84" y="635"/>
      <point x="84" y="574" type="curve" smooth="yes"/>
      <point x="84" y="534"/>
      <point x="102" y="506"/>
      <point x="128" y="492" type="curve" smooth="yes"/>
      <point x="164" y="474" type="line" smooth="yes"/>
      <point x="180" y="466"/>
      <point x="192" y="458"/>
      <point x="192" y="446" type="curve" smooth="yes"/>
      <point x="192" y="434"/>
      <point x="182" y="426"/>
      <point x="158" y="426" type="curve" smooth="yes"/>
      <point x="138" y="426"/>
      <point x="116" y="438"/>
      <point x="96" y="460" type="curve"/>
    </contour>
    <contour>
      <point x="318" y="360" type="line"/>
      <point x="412" y="360" type="line"/>
      <point x="430" y="452" type="line"/>
      <point x="440" y="568" type="line"/>
      <point x="443" y="568" type="line"/>
      <point x="464" y="406" type="line"/>
      <point x="534" y="406" type="line"/>
      <point x="614" y="568" type="line"/>
      <point x="618" y="568" type="line"/>
      <point x="584" y="452" type="line"/>
      <point x="566" y="360" type="line"/>
      <point x="660" y="360" type="line"/>
      <point x="720" y="676" type="line"/>
      <point x="602" y="676" type="line"/>
      <point x="551" y="580" type="line"/>
      <point x="520" y="516" type="line"/>
      <point x="516" y="516" type="line"/>
      <point x="507" y="580" type="line"/>
      <point x="486" y="676" type="line"/>
      <point x="378" y="676" type="line"/>
    </contour>
  </outline>
</glyph>
<glyph name="sha.001" format="1">
  <advance width="784"/>
  <outline>
    <contour>
      <point x="774" y="500" type="line"/>
      <point x="614" y="500" type="line"/>
      <point x="552" y="180" type="line"/>
      <point x="523" y="132"/>
      <point x="503" y="124"/>
      <point x="488" y="124" type="curve" smooth="yes"/>
      <point x="470" y="124"/>
      <point x="458" y="138"/>
      <point x="458" y="166" type="curve" smooth="yes"/>
      <point x="458" y="178"/>
      <point x="462" y="192"/>
      <point x="466" y="210" type="curve" smooth="yes"/>
      <point x="524" y="500" type="line"/>
      <point x="364" y="500" type="line"/>
      <point x="300" y="180" type="line"/>
      <point x="266" y="132"/>
      <point x="245" y="124"/>
      <point x="228" y="124" type="curve" smooth="yes"/>
      <point x="208" y="124"/>
      <point x="196" y="138"/>
      <point x="196" y="166" type="curve" smooth="yes"/>
      <point x="196" y="178"/>
      <point x="200" y="192"/>
      <point x="204" y="210" type="curve" smooth="yes"/>
      <point x="262" y="500" type="line"/>
      <point x="102" y="500" type="line"/>
      <point x="40" y="190" type="line" smooth="yes"/>
      <point x="35" y="166"/>
      <point x="32" y="140"/>
      <point x="32" y="118" type="curve" smooth="yes"/>
      <point x="32" y="32"/>
      <point x="65" y="-12"/>
      <point x="140" y="-12" type="curve" smooth="yes"/>
      <point x="195" y="-12"/>
      <point x="247" y="24"/>
      <point x="296" y="72" type="curve"/>
      <point x="311" y="20"/>
      <point x="336" y="-12"/>
      <point x="402" y="-12" type="curve" smooth="yes"/>
      <point x="452" y="-12"/>
      <point x="502" y="24"/>
      <point x="542" y="64" type="curve"/>
      <point x="546" y="64" type="line"/>
      <point x="546" y="0" type="line"/>
      <point x="676" y="0" type="line"/>
    </contour>
  </outline>
</glyph>
<glyph name="shcha" format="1">
  <advance width="870"/>
  <outline>
    <contour>
      <point x="625" y="0" type="line"/>
      <point x="655" y="0" type="line"/>
      <point x="628" y="-172" type="line"/>
      <point x="752" y="-172" type="line"/>
      <point x="809" y="19" type="line"/>
      <point x="830" y="134" type="line"/>
      <point x="652" y="134" type="line"/>
    </contour>
    <component base="mturned"/>
  </outline>
</glyph>
<glyph name="slash" format="1">
  <advance width="324"/>
  <outline>
    <contour>
      <point x="-68" y="-160" type="line"/>
      <point x="34" y="-160" type="line"/>
      <point x="384" y="710" type="line"/>
      <point x="280" y="710" type="line"/>
    </contour>
  </outline>
</glyph>
<glyph name="t.sups" format="1">
  <advance width="259"/>
  <outline>
    <contour>
      <point x="78" y="390" type="line"/>
      <point x="75" y="375"/>
      <point x="73" y="361"/>
      <point x="73" y="346" type="curve" smooth="yes"/>
      <point x="73" y="291"/>
      <point x="103" y="252"/>
      <point x="176" y="252" type="curve" smooth="yes"/>
      <point x="206" y="252"/>
      <point x="236" y="258"/>
      <point x="256" y="264" type="curve"/>
      <point x="239" y="343" type="line"/>
      <point x="230" y="340"/>
      <point x="224" y="338"/>
      <point x="214" y="338" type="curve" smooth="yes"/>
      <point x="197" y="338"/>
      <point x="187" y="346"/>
      <point x="187" y="367" type="curve" smooth="yes"/>
      <point x="187" y="373"/>
      <point x="187" y="379"/>
      <point x="188" y="386" type="curve"/>
      <point x="212" y="506" type="line"/>
      <point x="287" y="506" type="line"/>
      <point x="303" y="592" type="line"/>
      <point x="229" y="592" type="line"/>
      <point x="246" y="675" type="line"/>
      <point x="154" y="675" type="line"/>
      <point x="126" y="592" type="line"/>
      <point x="76" y="588" type="line"/>
      <point x="60" y="506" type="line"/>
      <point x="103" y="506" type="line"/>
    </contour>
  </outline>
</glyph>
<glyph name="tbar" format="1">
  <advance width="384"/>
  <outline>
    <contour>
      <point x="68" y="194" type="line" smooth="yes"/>
      <point x="64" y="172"/>
      <point x="60" y="150"/>
      <point x="60" y="128" type="curve" smooth="yes"/>
      <point x="60" y="46"/>
      <point x="104" y="-12"/>
      <point x="210" y="-12" type="curve" smooth="yes"/>
      <point x="266" y="-12"/>
      <point x="308" y="0"/>
      <point x="336" y="10" type="curve"/>
      <point x="308" y="122" type="line"/>
      <point x="296" y="116"/>
      <point x="284" y="112"/>
      <point x="272" y="112" type="curve" smooth="yes"/>
      <point x="240" y="112"/>
      <point x="224" y="126"/>
      <point x="224" y="156" type="curve" smooth="yes"/>
      <point x="224" y="166"/>
      <point x="224" y="176"/>
      <point x="226" y="188" type="curve" smooth="yes"/>
      <point x="264" y="376" type="line"/>
      <point x="376" y="376" type="line"/>
      <point x="400" y="500" type="line"/>
      <point x="292" y="500" type="line"/>
      <point x="316" y="628" type="line"/>
      <point x="182" y="628" type="line"/>
      <point x="138" y="500" type="line"/>
      <point x="66" y="494" type="line"/>
      <point x="42" y="376" type="line"/>
      <point x="106" y="376" type="line"/>
    </contour>
    <contour>
      <point x="340" y="224" type="line"/>
      <point x="356" y="300" type="line"/>
      <point x="96" y="300" type="line"/>
      <point x="22" y="294" type="line"/>
      <point x="8" y="224" type="line"/>
    </contour>
    <contour>
      <point x="258" y="664" type="move" name="aboveLC"/>
    </contour>
    <contour>
      <point x="183" y="-22" type="move" name="belowLC"/>
    </contour>
    <contour>
      <point x="186" y="0" type="move" name="baseLC"/>
    </contour>
  </outline>
</glyph>
<glyph name="tildecmb" format="1">
  <advance width="0"/>
  <outline>
    <contour>
      <point x="34" y="576" type="line"/>
      <point x="47" y="606"/>
      <point x="58" y="616"/>
      <point x="72" y="616" type="curve" smooth="yes"/>
      <point x="112" y="616"/>
      <point x="128" y="574"/>
      <point x="189" y="574" type="curve" smooth="yes"/>
      <point x="238" y="574"/>
      <point x="290" y="618"/>
      <point x="316" y="712" type="curve"/>
      <point x="234" y="712" type="line"/>
      <point x="221" y="682"/>
      <point x="210" y="672"/>
      <point x="196" y="672" type="curve" smooth="yes"/>
      <point x="156" y="672"/>
      <point x="140" y="714"/>
      <point x="79" y="714" type="curve" smooth="yes"/>
      <point x="30" y="714"/>
      <point x="-22" y="670"/>
      <point x="-48" y="576" type="curve"/>
    </contour>
    <contour>
      <point x="114" y="522" type="move" name="_aboveLC"/>
    </contour>
  </outline>
</glyph>
<glyph name="tonoscmb" format="1">
  <advance width="0"/>
  <outline>
    <contour>
      <point x="154" y="564" type="line"/>
      <point x="266" y="754" type="line"/>
      <point x="118" y="754" type="line"/>
      <point x="52" y="564" type="line"/>
    </contour>
    <contour>
      <point x="114" y="522" type="move" name="_aboveLC"/>
    </contour>
  </outline>
</glyph>
<glyph name="trademark" format="1">
  <advance width="668"/>
  <outline>
    <contour>
      <point x="108" y="360" type="line"/>
      <point x="210" y="360" type="line"/>
      <point x="254" y="584" type="line"/>
      <point x="332" y="584" type="line"/>
      <point x="350" y="676" type="line"/>
      <point x="88" y="676" type="line"/>
      <point x="70" y="584" type="line"/>
      <point x="152" y="584" type="line"/>
    </contour>
    <contour>
      <point x="328" y="360" type="line"/>
      <point x="422" y="360" type="line"/>
      <point x="440" y="452" type="line"/>
      <point x="450" y="568" type="line"/>
      <point x="453" y="568" type="line"/>
      <point x="474" y="406" type="line"/>
      <point x="544" y="406" type="line"/>
      <point x="624" y="568" type="line"/>
      <point x="628" y="568" type="line"/>
      <point x="594" y="452" type="line"/>
      <point x="576" y="360" type="line"/>
      <point x="670" y="360" type="line"/>
      <point x="730" y="676" type="line"/>
      <point x="612" y="676" type="line"/>
      <point x="561" y="580" type="line"/>
      <point x="530" y="516" type="line"/>
      <point x="526" y="516" type="line"/>
      <point x="517" y="580" type="line"/>
      <point x="496" y="676" type="line"/>
      <point x="388" y="676" type="line"/>
    </contour>
  </outline>
</glyph>
<glyph name="triangleblackup" format="1">
  <advance width="574"/>
  <outline>
    <contour>
      <point x="286" y="548" type="line"/>
      <point x="18" y="18" type="line"/>
      <point x="18" y="16" type="line"/>
      <point x="556" y="16" type="line"/>
      <point x="556" y="18" type="line"/>
      <point x="288" y="548" type="line"/>
    </contour>
  </outline>
</glyph>
<glyph name="trianglewhiteleft" format="1">
  <advance width="572"/>
  <outline>
    <contour>
      <point x="232" y="282" type="line"/>
      <point x="422" y="385" type="line"/>
      <point x="422" y="178" type="line"/>
    </contour>
    <contour>
      <point x="524" y="561" type="line"/>
      <point x="522" y="561" type="line"/>
      <point x="12" y="284" type="line"/>
      <point x="12" y="280" type="line"/>
      <point x="522" y="3" type="line"/>
      <point x="524" y="3" type="line"/>
    </contour>
  </outline>
</glyph>
<glyph name="trianglewhiteup" format="1">
  <advance width="574"/>
  <outline>
    <contour>
      <point x="193" y="120" type="line"/>
      <point x="287" y="327" type="line"/>
      <point x="382" y="120" type="line"/>
    </contour>
    <contour>
      <point x="18" y="18" type="line"/>
      <point x="557" y="18" type="line"/>
      <point x="557" y="20" type="line"/>
      <point x="289" y="547" type="line"/>
      <point x="285" y="547" type="line"/>
      <point x="18" y="20" type="line"/>
    </contour>
  </outline>
</glyph>
<glyph name="two" format="1">
  <advance width="520"/>
  <outline>
    <contour>
      <point x="-14" y="0" type="line"/>
      <point x="424" y="0" type="line"/>
      <point x="450" y="134" type="line"/>
      <point x="258" y="134" type="line"/>
      <point x="390" y="256"/>
      <point x="490" y="346"/>
      <point x="490" y="470" type="curve" smooth="yes"/>
      <point x="490" y="576"/>
      <point x="412" y="646"/>
      <point x="288" y="646" type="curve" smooth="yes"/>
      <point x="224" y="646"/>
      <point x="160" y="618"/>
      <point x="98" y="566" type="curve"/>
      <point x="174" y="474" type="line"/>
      <point x="208" y="500"/>
      <point x="234" y="520"/>
      <point x="268" y="520" type="curve" smooth="yes"/>
      <point x="310" y="520"/>
      <point x="334" y="494"/>
      <point x="334" y="454" type="curve" smooth="yes"/>
      <point x="334" y="348"/>
      <point x="192" y="242"/>
      <point x="4" y="90" type="curve"/>
    </contour>
  </outline>
</glyph>
<glyph name="two.onum" format="1">
  <advance width="486"/>
  <outline>
    <contour>
      <point x="-14" y="0" type="line"/>
      <point x="398" y="0" type="line"/>
      <point x="424" y="134" type="line"/>
      <point x="250" y="134" type="line"/>
      <point x="366" y="236"/>
      <point x="456" y="314"/>
      <point x="456" y="416" type="curve" smooth="yes"/>
      <point x="456" y="522"/>
      <point x="382" y="592"/>
      <point x="270" y="592" type="curve" smooth="yes"/>
      <point x="206" y="592"/>
      <point x="142" y="563"/>
      <point x="80" y="512" type="curve"/>
      <point x="156" y="420" type="line"/>
      <point x="190" y="446"/>
      <point x="216" y="466"/>
      <point x="250" y="466" type="curve" smooth="yes"/>
      <point x="280" y="466"/>
      <point x="300" y="440"/>
      <point x="300" y="400" type="curve" smooth="yes"/>
      <point x="300" y="312"/>
      <point x="172" y="222"/>
      <point x="4" y="90" type="curve"/>
    </contour>
  </outline>
</glyph>
<glyph name="two.tnum" format="1">
  <advance width="520"/>
  <outline>
    <contour>
      <point x="-14" y="0" type="line"/>
      <point x="424" y="0" type="line"/>
      <point x="450" y="134" type="line"/>
      <point x="258" y="134" type="line"/>
      <point x="380" y="236"/>
      <point x="472" y="314"/>
      <point x="472" y="416" type="curve" smooth="yes"/>
      <point x="472" y="522"/>
      <point x="394" y="592"/>
      <point x="270" y="592" type="curve" smooth="yes"/>
      <point x="206" y="592"/>
      <point x="142" y="563"/>
      <point x="80" y="512" type="curve"/>
      <point x="156" y="420" type="line"/>
      <point x="190" y="446"/>
      <point x="216" y="466"/>
      <point x="250" y="466" type="curve" smooth="yes"/>
      <point x="292" y="466"/>
      <point x="316" y="440"/>
      <point x="316" y="400" type="curve" smooth="yes"/>
      <point x="316" y="312"/>
      <point x="184" y="222"/>
      <point x="4" y="90" type="curve"/>
    </contour>
  </outline>
</glyph>
<glyph name="uhornhoi" format="1">
  <advance width="576"/>
  <outline>
    <contour>
      <point x="520" y="608" type="line"/>
      <point x="525" y="596"/>
      <point x="528" y="582"/>
      <point x="528" y="570" type="curve" smooth="yes"/>
      <point x="528" y="538"/>
      <point x="502" y="506"/>
      <point x="454" y="500" type="curve"/>
      <point x="528" y="445" type="line"/>
      <point x="606" y="467"/>
      <point x="652" y="513"/>
      <point x="652" y="578" type="curve" smooth="yes"/>
      <point x="652" y="600"/>
      <point x="648" y="622"/>
      <point x="638" y="644" type="curve"/>
    </contour>
    <component base="u"/>
    <component base="hoicmb" xOffset="218"/>
  </outline>
</glyph>
<glyph name="underscore" format="1">
  <advance width="480"/>
  <outline>
    <contour>
      <point x="-34" y="-56" type="line"/>
      <point x="-52" y="-144" type="line"/>
      <point x="404" y="-144" type="line"/>
      <point x="422" y="-56" type="line"/>
    </contour>
  </outline>
</glyph>
<glyph name="v" format="1">
  <advance width="518"/>
  <outline>
    <contour>
      <point x="120" y="0" type="line"/>
      <point x="304" y="0" type="line"/>
      <point x="554" y="500" type="line"/>
      <point x="398" y="500" type="line"/>
      <point x="300" y="272" type="line" smooth="yes"/>
      <point x="278" y="220"/>
      <point x="258" y="170"/>
      <point x="236" y="118" type="curve"/>
      <point x="232" y="118" type="line"/>
      <point x="232" y="171"/>
      <point x="232" y="222"/>
      <point x="230" y="272" type="curve" smooth="yes"/>
      <point x="220" y="500" type="line"/>
      <point x="60" y="500" type="line"/>
    </contour>
    <contour>
      <point x="326" y="522" type="move" name="aboveLC"/>
    </contour>
    <contour>
      <point x="222" y="-22" type="move" name="belowLC"/>
    </contour>
  </outline>
</glyph>
<glyph name="v.sups" format="1">
  <advance width="350"/>
  <outline>
    <contour>
      <point x="114" y="260" type="line"/>
      <point x="241" y="260" type="line"/>
      <point x="407" y="592" type="line"/>
      <point x="299" y="592" type="line"/>
      <point x="236" y="442" type="line"/>
      <point x="194" y="340" type="line"/>
      <point x="191" y="340" type="line"/>
      <point x="190" y="442" type="line"/>
      <point x="184" y="592" type="line"/>
      <point x="73" y="592" type="line"/>
    </contour>
  </outline>
</glyph>
<glyph name="verticallinelowmod" format="1">
  <advance width="150"/>
  <outline>
    <contour>
      <point x="68" y="-62" type="line"/>
      <point x="-40" y="-62" type="line"/>
      <point x="-90" y="-270" type="line"/>
      <point x="38" y="-270" type="line"/>
    </contour>
  </outline>
</glyph>
<glyph name="verticallinemod" format="1">
  <advance width="150"/>
  <outline>
    <contour>
      <point x="76" y="522" type="line"/>
      <point x="184" y="522" type="line"/>
      <point x="234" y="730" type="line"/>
      <point x="106" y="730" type="line"/>
    </contour>
  </outline>
</glyph>
<glyph name="w" format="1">
  <advance width="764"/>
  <outline>
    <contour>
      <point x="92" y="0" type="line"/>
      <point x="272" y="0" type="line"/>
      <point x="344" y="186" type="line"/>
      <point x="361" y="232"/>
      <point x="375" y="278"/>
      <point x="394" y="332" type="curve"/>
      <point x="398" y="332" type="line"/>
      <point x="395" y="278"/>
      <point x="396" y="232"/>
      <point x="394" y="186" type="curve"/>
      <point x="394" y="0" type="line"/>
      <point x="580" y="0" type="line"/>
      <point x="788" y="500" type="line"/>
      <point x="640" y="500" type="line"/>
      <point x="560" y="278" type="line"/>
      <point x="542" y="229"/>
      <point x="528" y="179"/>
      <point x="510" y="128" type="curve"/>
      <point x="506" y="128" type="line"/>
      <point x="506" y="179"/>
      <point x="509" y="229"/>
      <point x="508" y="278" type="curve"/>
      <point x="504" y="500" type="line"/>
      <point x="368" y="500" type="line"/>
      <point x="276" y="278" type="line"/>
      <point x="255" y="230"/>
      <point x="238" y="179"/>
      <point x="220" y="128" type="curve"/>
      <point x="216" y="128" type="line"/>
      <point x="219" y="179"/>
      <point x="224" y="229"/>
      <point x="226" y="278" type="curve"/>
      <point x="232" y="500" type="line"/>
      <point x="74" y="500" type="line"/>
    </contour>
    <contour>
      <point x="440" y="522" type="move" name="aboveLC"/>
    </contour>
    <contour>
      <point x="344" y="-22" type="move" name="belowLC"/>
    </contour>
  </outline>
</glyph>
<glyph name="x.sups" format="1">
  <advance width="347"/>
  <outline>
    <contour>
      <point x="1" y="260" type="line"/>
      <point x="123" y="260" type="line"/>
      <point x="158" y="312" type="line"/>
      <point x="188" y="361" type="line"/>
      <point x="191" y="361" type="line"/>
      <point x="208" y="309" type="line"/>
      <point x="225" y="260" type="line"/>
      <point x="338" y="260" type="line"/>
      <point x="278" y="413" type="line"/>
      <point x="413" y="592" type="line"/>
      <point x="291" y="592" type="line"/>
      <point x="262" y="538" type="line"/>
      <point x="235" y="490" type="line"/>
      <point x="232" y="490" type="line"/>
      <point x="218" y="542" type="line"/>
      <point x="202" y="592" type="line"/>
      <point x="89" y="592" type="line"/>
      <point x="145" y="437" type="line"/>
    </contour>
  </outline>
</glyph>
<glyph name="zedescender" format="1">
  <advance width="462"/>
  <outline>
    <contour>
      <point x="211" y="-172" type="line"/>
      <point x="232" y="-30" type="line"/>
      <point x="108" y="-30" type="line"/>
      <point x="53" y="-172" type="line"/>
    </contour>
    <component base="ze"/>
  </outline>
</glyph>
<glyph name="zero.0s" format="1">
  <advance width="520"/>
  <outline>
    <contour>
      <point x="303" y="134" type="line"/>
      <point x="413" y="134" type="line"/>
      <point x="245" y="504" type="line"/>
      <point x="135" y="504" type="line"/>
    </contour>
    <component base="zero"/>
  </outline>
</glyph>
<glyph name="zeta" format="1">
  <advance width="448"/>
  <outline>
    <contour>
      <point x="142" y="690" type="line"/>
      <point x="126" y="568" type="line"/>
      <point x="194" y="579"/>
      <point x="305" y="596"/>
      <point x="348" y="600" type="curve"/>
      <point x="348" y="596" type="line"/>
      <point x="186" y="490"/>
      <point x="26" y="358"/>
      <point x="26" y="178" type="curve" smooth="yes"/>
      <point x="26" y="60"/>
      <point x="96" y="16"/>
      <point x="182" y="-8" type="curve" smooth="yes"/>
      <point x="224" y="-20"/>
      <point x="242" y="-31"/>
      <point x="242" y="-56" type="curve" smooth="yes"/>
      <point x="242" y="-90"/>
      <point x="216" y="-122"/>
      <point x="194" y="-146" type="curve"/>
      <point x="296" y="-188" type="line"/>
      <point x="344" y="-136"/>
      <point x="392" y="-65"/>
      <point x="392" y="-2" type="curve" smooth="yes"/>
      <point x="392" y="58"/>
      <point x="364" y="86"/>
      <point x="280" y="112" type="curve" smooth="yes"/>
      <point x="216" y="132"/>
      <point x="190" y="152"/>
      <point x="190" y="200" type="curve" smooth="yes"/>
      <point x="190" y="314"/>
      <point x="338" y="490"/>
      <point x="492" y="568" type="curve"/>
      <point x="520" y="700" type="line"/>
    </contour>
  </outline>
</glyph>
<glyph name="zhe" format="1">
  <advance width="751"/>
  <outline>
    <contour>
      <point x="-40" y="0" type="line"/>
      <point x="138" y="0" type="line"/>
      <point x="273" y="188" type="line"/>
      <point x="297" y="188" type="line"/>
      <point x="259" y="0" type="line"/>
      <point x="403" y="0" type="line"/>
      <point x="440" y="188" type="line"/>
      <point x="465" y="188" type="line"/>
      <point x="524" y="0" type="line"/>
      <point x="702" y="0" type="line"/>
      <point x="592" y="272" type="line"/>
      <point x="788" y="498" type="line"/>
      <point x="609" y="498" type="line"/>
      <point x="482" y="322" type="line"/>
      <point x="467" y="322" type="line"/>
      <point x="502" y="498" type="line"/>
      <point x="359" y="498" type="line"/>
      <point x="324" y="322" type="line"/>
      <point x="308" y="322" type="line"/>
      <point x="253" y="498" type="line"/>
      <point x="73" y="498" type="line"/>
      <point x="179" y="272" type="line"/>
    </contour>
    <contour>
      <point x="434" y="522" type="move" name="aboveLC"/>
    </contour>
  </outline>
</glyph>
